<svg version="1.1" id="Layer_1" xmlns="http://www.w3.org/2000/svg" xmlns:xlink="http://www.w3.org/1999/xlink" x="0px" y="0px"
	 width="100%" viewBox="0 0 564 780" enable-background="new 0 0 564 780" xml:space="preserve">
<path fill="#FEFEFD" opacity="1.000000" stroke="none" 
	d="
M565.000000,309.000000 
	C565.000000,466.666626 565.000000,623.833252 565.000000,780.999878 
	C377.000092,780.999939 189.000198,780.999939 1.000232,781.000000 
	C1.000154,521.000183 1.000154,261.000366 1.000077,1.000406 
	C188.999756,1.000271 376.999512,1.000271 564.999634,1.000135 
	C565.000000,103.500000 565.000000,206.000000 565.000000,309.000000 
M537.663757,324.139160 
	C538.789246,311.539734 539.971802,298.945099 541.026672,286.339783 
	C542.511536,268.594757 543.825806,250.835281 545.352051,233.093964 
	C547.176819,211.882874 549.269226,190.694275 551.000732,169.475952 
	C551.763062,160.134445 551.488525,160.094818 542.065308,160.094635 
	C368.074890,160.091095 194.084488,160.091888 20.094078,160.093552 
	C18.260916,160.093567 16.413738,160.268845 14.597458,160.100128 
	C10.592602,159.728104 9.926395,161.627197 10.256476,165.215042 
	C12.252945,186.915787 14.074486,208.632721 15.925160,230.346756 
	C17.733915,251.568954 19.437590,272.800323 21.314098,294.016449 
	C23.747492,321.528809 26.401365,349.021851 28.783678,376.538513 
	C31.051262,402.729980 33.014938,428.947632 35.253635,455.141693 
	C37.462772,480.989868 39.913345,506.817352 42.140347,532.664001 
	C44.568466,560.844910 46.805515,589.042297 49.228569,617.223572 
	C51.780025,646.898315 54.529514,676.556335 56.970238,706.239868 
	C57.256710,709.723938 58.482117,711.077026 61.705185,711.976685 
	C100.617203,722.839050 139.478958,733.881348 178.379990,744.783386 
	C211.526169,754.072632 244.700241,763.262939 277.888000,772.402466 
	C279.711945,772.904724 281.898102,772.993225 283.707550,772.504211 
	C298.315125,768.556702 312.874786,764.431580 327.445282,760.347046 
	C352.905151,753.210144 378.362762,746.065247 403.820404,738.920410 
	C435.840302,729.934021 467.847565,720.901855 499.895142,712.015198 
	C503.509094,711.013062 504.732635,709.283081 505.009644,705.479187 
	C506.919220,679.255005 509.049133,653.045593 511.286530,626.846680 
	C513.424072,601.817200 515.844849,576.812012 518.015686,551.785217 
	C519.885315,530.231873 521.482544,508.654785 523.373108,487.103394 
	C525.814758,459.271149 528.513489,431.461426 530.943176,403.628204 
	C533.229248,377.440979 535.309631,351.235748 537.663757,324.139160 
M337.499634,112.419182 
	C349.283417,112.419182 361.067230,112.419182 372.856018,112.419182 
	C372.856018,91.354370 372.856018,70.787201 372.856018,49.859955 
	C350.135071,49.859955 327.715485,49.859955 305.097382,49.859955 
	C305.097382,45.777649 305.097382,42.060646 305.097382,37.830849 
	C327.918304,37.830849 350.466370,37.830849 372.832855,37.830849 
	C372.832855,28.726377 372.832855,20.140741 372.832855,11.451605 
	C341.111023,11.451605 309.706390,11.451605 278.180420,11.451605 
	C278.180420,32.247528 278.180420,52.798626 278.180420,73.839630 
	C301.028320,73.839630 323.591339,73.839630 346.004944,73.839630 
	C346.004944,78.051849 346.004944,81.759209 346.004944,85.786880 
	C323.165680,85.786880 300.741730,85.786880 278.231842,85.786880 
	C278.231842,94.815361 278.231842,103.499756 278.231842,112.419136 
	C297.884308,112.419136 317.191956,112.419136 337.499634,112.419182 
M263.019958,56.500000 
	C263.019958,41.549847 263.019958,26.599691 263.019958,11.563791 
	C253.840088,11.563791 245.128143,11.563791 236.081528,11.563791 
	C236.081528,36.369236 236.081528,60.811893 236.081528,85.709946 
	C221.160980,85.709946 206.572113,85.709946 191.796906,85.709946 
	C191.796906,94.764633 191.796906,103.359665 191.796906,112.212563 
	C215.602661,112.212563 239.181061,112.212563 263.019958,112.212563 
	C263.019958,93.804314 263.019958,75.652161 263.019958,56.500000 
z"/>
<path fill="#E9CA33" opacity="1.000000" stroke="none" 
	d="
M537.572144,324.588806 
	C535.309631,351.235748 533.229248,377.440979 530.943176,403.628204 
	C528.513489,431.461426 525.814758,459.271149 523.373108,487.103394 
	C521.482544,508.654785 519.885315,530.231873 518.015686,551.785217 
	C515.844849,576.812012 513.424072,601.817200 511.286530,626.846680 
	C509.049133,653.045593 506.919220,679.255005 505.009644,705.479187 
	C504.732635,709.283081 503.509094,711.013062 499.895142,712.015198 
	C467.847565,720.901855 435.840302,729.934021 403.820404,738.920410 
	C378.362762,746.065247 352.905151,753.210144 327.445282,760.347046 
	C312.874786,764.431580 298.315125,768.556702 283.707550,772.504211 
	C281.898102,772.993225 279.711945,772.904724 277.888000,772.402466 
	C244.700241,763.262939 211.526169,754.072632 178.379990,744.783386 
	C139.478958,733.881348 100.617203,722.839050 61.705185,711.976685 
	C58.482117,711.077026 57.256710,709.723938 56.970238,706.239868 
	C54.529514,676.556335 51.780025,646.898315 49.228569,617.223572 
	C46.805515,589.042297 44.568466,560.844910 42.140347,532.664001 
	C39.913345,506.817352 37.462772,480.989868 35.253635,455.141693 
	C33.014938,428.947632 31.051262,402.729980 28.783678,376.538513 
	C26.401365,349.021851 23.747492,321.528809 21.314098,294.016449 
	C19.437590,272.800323 17.733915,251.568954 15.925160,230.346756 
	C14.074486,208.632721 12.252945,186.915787 10.256476,165.215042 
	C9.926395,161.627197 10.592602,159.728104 14.597458,160.100128 
	C16.413738,160.268845 18.260916,160.093567 20.094078,160.093552 
	C194.084488,160.091888 368.074890,160.091095 542.065308,160.094635 
	C551.488525,160.094818 551.763062,160.134445 551.000732,169.475952 
	C549.269226,190.694275 547.176819,211.882874 545.352051,233.093964 
	C543.825806,250.835281 542.511536,268.594757 541.026672,286.339783 
	C539.971802,298.945099 538.789246,311.539734 537.572144,324.588806 
M491.593048,285.414612 
	C493.067322,266.279297 494.541595,247.143997 496.597534,227.411713 
	C496.736115,222.280624 496.874695,217.149551 497.545746,211.541183 
	C498.599335,208.990326 497.641632,207.891678 494.060028,208.002701 
	C424.041656,208.006470 354.023254,208.010239 283.171814,208.034012 
	C282.447144,209.762085 281.088837,211.489807 281.087830,213.218307 
	C280.991272,381.991180 280.996643,550.764099 281.011963,719.536987 
	C281.012115,721.261169 281.228455,722.985352 281.390961,725.413208 
	C286.102142,724.130981 290.052917,723.055725 294.678131,721.983276 
	C295.452087,721.655518 296.226044,721.327759 297.819366,720.998535 
	C303.217010,719.341919 308.614655,717.685242 314.750336,716.014648 
	C316.168976,715.678101 317.587616,715.341492 319.780121,714.920227 
	C326.853821,712.947205 333.927521,710.974182 341.667450,708.997253 
	C342.111542,708.988220 342.555603,708.979248 343.697449,708.920227 
	C345.133026,708.284790 346.568604,707.649353 348.754181,707.009338 
	C349.503998,706.994019 350.253815,706.978699 351.642944,706.902771 
	C352.106812,706.274475 352.570679,705.646179 353.775238,705.015198 
	C354.515869,705.006897 355.256531,704.998535 356.785736,704.984070 
	C372.403412,700.944824 388.025055,696.920715 403.623230,692.807556 
	C404.208618,692.653137 404.565857,691.633484 405.687134,691.017944 
	C406.125580,691.013611 406.563995,691.009277 407.597931,690.968201 
	C408.068512,690.652466 408.539093,690.336792 409.795349,689.999084 
	C412.201630,689.342224 414.607910,688.685364 417.846802,688.015808 
	C419.301086,687.812927 420.796478,687.762207 422.203064,687.382507 
	C431.852570,684.778015 441.418427,681.822205 451.149292,679.578308 
	C455.688416,678.531555 457.923553,676.762512 456.999969,671.169434 
	C457.003693,669.781189 457.007416,668.393005 457.590668,666.419861 
	C458.386017,657.947083 459.181366,649.474365 459.993896,640.114075 
	C460.003510,637.745972 460.013123,635.377869 460.595306,632.424622 
	C461.063538,626.616394 461.531769,620.808228 462.005402,614.334229 
	C462.004974,613.890320 462.004547,613.446472 462.588043,612.416809 
	C463.057709,605.946167 463.527374,599.475525 464.027283,592.159485 
	C464.688324,583.440674 465.349396,574.721802 466.586578,565.425903 
	C467.046875,560.951477 467.507172,556.477112 467.985260,551.127991 
	C467.994110,549.086914 468.002930,547.045837 468.595398,544.411316 
	C469.763184,530.112793 470.884277,515.810242 472.111877,501.516846 
	C473.353210,487.063446 474.676331,472.616943 476.011505,458.171844 
	C476.602631,451.776215 477.311615,445.391510 477.980316,438.334076 
	C477.980103,437.888824 477.979919,437.443542 477.998047,436.131592 
	C478.993164,425.754395 479.988281,415.377167 480.993744,404.100555 
	C480.999176,401.402405 481.004578,398.704254 481.493744,395.664825 
	C481.649445,395.108398 481.805145,394.552002 481.979645,393.139099 
	C481.983887,391.425140 481.988129,389.711151 482.021973,387.158173 
	C482.676178,381.106293 483.330414,375.054382 483.999084,368.127838 
	C484.003723,366.086853 484.008392,364.045837 484.587677,361.429291 
	C485.385345,353.286957 486.182983,345.144623 486.996094,336.127380 
	C487.001251,334.085754 487.006409,332.044128 487.587860,329.427429 
	C487.723877,326.285492 487.859894,323.143585 488.004303,319.335632 
	C488.006226,318.891571 488.008179,318.447540 488.589905,317.424255 
	C488.725800,313.949493 488.861694,310.474762 489.105530,306.185608 
	C489.405487,302.791595 489.705475,299.397552 490.571838,295.459015 
	C490.709991,293.306366 490.848145,291.153687 491.001068,288.251617 
	C491.004944,287.502106 491.008820,286.752594 491.593048,285.414612 
M260.021759,381.500000 
	C260.021759,345.569824 260.021759,309.639648 260.021759,273.500153 
	C240.015427,273.500153 220.647217,273.500153 200.552811,273.500153 
	C200.552811,374.201935 200.552811,474.513947 200.552811,575.485962 
	C165.677597,566.018616 131.643875,556.779724 97.279297,547.451050 
	C96.980621,549.312988 96.698708,550.273438 96.691048,551.236023 
	C96.544083,569.720276 96.354141,588.205261 96.465240,606.688354 
	C96.473244,608.018982 98.490601,610.021057 99.979080,610.533691 
	C104.839401,612.207214 109.890625,613.323853 114.862862,614.675110 
	C155.929001,625.834900 196.990524,637.011658 238.062439,648.150146 
	C245.045013,650.043823 252.070404,651.779602 260.021790,653.832458 
	C260.021790,562.644226 260.021790,472.572113 260.021759,381.500000 
z"/>
<path fill="#030303" opacity="1.000000" stroke="none" 
	d="
M336.999634,112.419159 
	C317.191956,112.419136 297.884308,112.419136 278.231842,112.419136 
	C278.231842,103.499756 278.231842,94.815361 278.231842,85.786880 
	C300.741730,85.786880 323.165680,85.786880 346.004944,85.786880 
	C346.004944,81.759209 346.004944,78.051849 346.004944,73.839630 
	C323.591339,73.839630 301.028320,73.839630 278.180420,73.839630 
	C278.180420,52.798626 278.180420,32.247528 278.180420,11.451605 
	C309.706390,11.451605 341.111023,11.451605 372.832855,11.451605 
	C372.832855,20.140741 372.832855,28.726377 372.832855,37.830849 
	C350.466370,37.830849 327.918304,37.830849 305.097382,37.830849 
	C305.097382,42.060646 305.097382,45.777649 305.097382,49.859955 
	C327.715485,49.859955 350.135071,49.859955 372.856018,49.859955 
	C372.856018,70.787201 372.856018,91.354370 372.856018,112.419182 
	C361.067230,112.419182 349.283417,112.419182 336.999634,112.419159 
z"/>
<path fill="#030303" opacity="1.000000" stroke="none" 
	d="
M263.019958,57.000000 
	C263.019958,75.652161 263.019958,93.804314 263.019958,112.212563 
	C239.181061,112.212563 215.602661,112.212563 191.796906,112.212563 
	C191.796906,103.359665 191.796906,94.764633 191.796906,85.709946 
	C206.572113,85.709946 221.160980,85.709946 236.081528,85.709946 
	C236.081528,60.811893 236.081528,36.369236 236.081528,11.563791 
	C245.128143,11.563791 253.840088,11.563791 263.019958,11.563791 
	C263.019958,26.599691 263.019958,41.549847 263.019958,57.000000 
z"/>
<path fill="#FFDE25" opacity="1.000000" stroke="none" 
	d="
M466.010468,566.002991 
	C465.349396,574.721802 464.688324,583.440674 463.629883,592.630981 
	C462.607330,593.581360 461.534393,593.975891 461.425934,594.552002 
	C460.262360,600.730164 458.766846,606.953918 462.004089,613.002563 
	C462.004547,613.446472 462.004974,613.890320 461.625824,614.735229 
	C457.142242,620.841003 458.889862,626.946411 460.022705,633.009766 
	C460.013123,635.377869 460.003510,637.745972 459.598724,640.603577 
	C458.174713,641.847107 456.248077,642.609680 456.255188,643.353821 
	C456.330322,651.239136 456.713104,659.121582 457.011108,667.004761 
	C457.007416,668.393005 457.003693,669.781189 456.644531,671.623962 
	C454.649261,673.617065 453.264557,675.880737 451.323669,676.563477 
	C444.384949,679.004456 437.219879,680.792786 430.215240,683.059143 
	C425.746735,684.504883 421.410004,686.358032 417.014191,688.028503 
	C414.607910,688.685364 412.201630,689.342224 409.231934,689.777832 
	C408.113159,690.039368 407.557800,690.522156 407.002441,691.004883 
	C406.563995,691.009277 406.125580,691.013611 404.900299,691.011108 
	C396.179047,692.133057 388.106476,692.688110 380.350098,694.556030 
	C372.970154,696.333435 365.891724,699.406128 358.755432,702.106873 
	C357.633026,702.531677 356.906677,704.002869 355.997162,704.990234 
	C355.256531,704.998535 354.515869,705.006897 353.082245,705.049072 
	C351.927368,705.709778 351.465515,706.336548 351.003632,706.963379 
	C350.253815,706.978699 349.503998,706.994019 348.168762,706.747070 
	C346.055450,707.313232 344.527557,708.141724 342.999695,708.970215 
	C342.555603,708.979248 342.111542,708.988220 341.083374,708.718994 
	C333.725616,709.953369 326.943115,711.429016 320.195740,713.050964 
	C319.672913,713.176697 319.396942,714.329468 319.006256,715.004883 
	C317.587616,715.341492 316.168976,715.678101 314.147522,715.742920 
	C309.319183,715.711487 305.008942,715.545288 300.911499,716.399780 
	C299.355591,716.724243 298.289429,719.397400 297.000000,721.000000 
	C296.226044,721.327759 295.452087,721.655518 294.340271,721.735657 
	C294.002411,721.488037 294.000000,720.995117 293.999268,720.602295 
	C293.954681,717.954895 293.781952,715.562622 290.609741,716.356995 
	C288.152985,716.972107 287.011139,718.577759 288.775391,721.268860 
	C282.249359,721.842224 283.011902,717.289673 283.011566,713.372986 
	C282.998077,549.707458 282.991486,386.041962 283.042175,222.376480 
	C283.043640,217.588882 283.669922,212.801483 284.004883,208.013992 
	C354.023254,208.010239 424.041656,208.006470 494.557617,208.332581 
	C495.707886,209.781143 496.360596,210.899796 497.013306,212.018463 
	C496.874695,217.149551 496.736115,222.280624 495.926239,227.783478 
	C494.503052,231.425812 493.383484,234.661102 493.065582,237.973343 
	C491.935303,249.750183 490.914459,261.543396 490.205444,273.351624 
	C489.954132,277.537537 490.714264,281.784180 491.012665,286.003082 
	C491.008820,286.752594 491.004944,287.502106 490.622803,288.702698 
	C490.164856,291.437042 490.085144,293.720306 490.005432,296.003540 
	C489.705475,299.397552 489.405487,302.791595 488.661774,306.680389 
	C488.148712,310.784607 488.079407,314.394043 488.010132,318.003479 
	C488.008179,318.447540 488.006226,318.891571 487.613525,319.754028 
	C487.152344,323.449127 487.081940,326.725800 487.011536,330.002502 
	C487.006409,332.044128 487.001251,334.085754 486.620758,336.630249 
	C481.743805,345.086426 482.371704,353.500153 484.013031,362.004852 
	C484.008392,364.045837 484.003723,366.086853 483.620575,368.635498 
	C479.398987,375.200714 480.750488,381.602600 481.992401,387.997192 
	C481.988129,389.711151 481.983887,391.425140 481.681641,393.600616 
	C481.259125,394.710144 481.134583,395.358124 481.010010,396.006104 
	C481.004578,398.704254 480.999176,401.402405 480.643066,404.608093 
	C478.757629,407.396637 477.106964,409.611481 475.747711,411.992645 
	C475.234985,412.890900 474.895935,414.451752 475.331604,415.236664 
	C478.229462,420.457794 476.908386,425.760773 476.278809,431.167297 
	C476.063080,433.019836 477.368958,435.049530 477.979706,436.998291 
	C477.979919,437.443542 477.980103,437.888824 477.604370,438.736389 
	C476.515656,440.192291 475.327759,441.181549 475.174866,442.310913 
	C474.600342,446.553589 474.366425,450.842285 473.999268,455.113220 
	C473.406830,462.003998 472.848083,468.897980 472.206238,475.784180 
	C471.166870,486.934967 470.054321,498.078979 469.006287,509.228973 
	C468.343536,516.279968 467.473724,523.326416 467.205841,530.394287 
	C467.021912,535.247253 467.712219,540.133423 468.011780,545.004761 
	C468.002930,547.045837 467.994110,549.086914 467.604523,551.634644 
	C463.449371,556.466858 464.674225,561.230042 466.010468,566.002991 
M356.588196,562.700745 
	C356.648712,561.645386 357.030884,559.807434 356.711609,559.676208 
	C355.594727,559.217224 354.235779,559.347107 352.968811,559.253296 
	C352.988159,560.506287 353.007507,561.759216 353.115112,563.674805 
	C354.068268,563.453979 355.021393,563.233093 356.588196,562.700745 
M368.093445,497.739502 
	C371.548340,501.342041 376.578888,500.528870 379.221252,495.438751 
	C379.492798,494.720947 379.764343,494.003174 380.491272,492.986969 
	C380.645416,492.891174 380.799530,492.795410 381.443970,492.969940 
	C381.618378,493.035797 381.792816,493.101654 382.219391,493.551270 
	C382.438202,493.777527 382.699768,493.930756 383.343414,494.499542 
	C383.902618,494.662903 384.461853,494.826263 385.678406,494.987488 
	C386.116638,494.983459 386.554840,494.979462 386.997833,495.873169 
	C386.997833,498.393951 386.997833,500.914734 386.997833,503.435486 
	C387.329681,503.369324 387.661530,503.303192 387.993408,503.237030 
	C388.996002,501.158020 389.998627,499.079010 391.400146,497.485657 
	C395.246796,495.523590 394.433380,500.894714 397.035156,501.756317 
	C396.938782,502.491272 396.842407,503.226227 396.160370,504.036255 
	C395.446564,504.359467 394.732788,504.682678 393.186859,505.034180 
	C392.457916,506.587189 391.264984,508.092102 391.098083,509.703339 
	C390.766479,512.904480 391.000031,516.164062 391.000031,519.399536 
	C390.584808,519.384827 390.169556,519.370056 389.754333,519.355347 
	C388.985718,517.966675 388.217133,516.577942 387.448547,515.189270 
	C386.961792,515.340698 386.475037,515.492065 385.988281,515.643494 
	C386.188995,517.838440 386.588196,520.038757 386.528992,522.226685 
	C386.479736,524.046509 386.485535,526.370056 385.436890,527.571228 
	C381.491119,532.091003 381.093414,534.888000 384.260620,539.823853 
	C384.940887,540.884094 385.700226,543.000305 385.219116,543.523987 
	C381.311432,547.777344 382.619843,551.837769 385.001709,556.140381 
	C386.693726,559.196716 385.964905,561.044128 382.692108,563.279785 
	C378.928009,565.851074 375.981232,567.732361 371.589874,565.120667 
	C370.715668,564.600708 369.057129,565.517883 367.752136,565.570129 
	C366.490784,565.620667 364.997559,565.807800 363.989838,565.246277 
	C359.507172,562.748535 358.369629,565.174072 357.515808,569.335938 
	C357.357361,569.884705 357.198883,570.433533 356.383179,570.724365 
	C355.166290,570.620056 353.949402,570.515747 352.732513,570.411499 
	C352.830078,571.286987 352.927643,572.162537 352.998108,573.791748 
	C351.001251,574.868042 349.004395,575.944336 346.914673,576.283203 
	C345.659058,575.575623 344.403473,574.868042 343.147827,574.160461 
	C342.431885,575.775269 341.715912,577.390076 340.342651,579.014404 
	C339.904388,579.016907 339.466095,579.019409 338.364838,578.727844 
	C336.248657,579.489380 334.132507,580.250854 332.005341,581.004150 
	C332.005341,581.004150 332.005066,581.015747 331.313812,580.938232 
	C329.864227,580.286438 328.414642,579.634644 326.906860,578.393311 
	C326.507599,578.077820 326.108307,577.762268 325.709076,577.446777 
	C325.486969,577.956604 325.264862,578.466431 324.145569,578.990784 
	C321.751740,578.988159 319.357941,578.985535 316.834412,578.253174 
	C314.666016,576.624817 312.574402,575.606689 310.251312,578.990662 
	C309.312988,578.765808 307.747162,578.795532 307.536224,578.275635 
	C305.925293,574.304749 304.332428,574.326355 301.720917,577.590271 
	C299.940216,579.815796 297.937439,579.330261 295.880768,577.099426 
	C294.795380,575.922119 292.545746,575.818176 290.821808,575.229553 
	C290.313049,576.968750 289.728058,578.690308 289.320648,580.452942 
	C289.017212,581.765625 289.436218,583.593445 288.684143,584.395386 
	C284.989258,588.335388 285.139069,589.497498 288.866058,593.452148 
	C290.479797,595.164490 291.865051,597.920959 291.856964,600.197815 
	C291.806335,614.466003 291.333282,628.732788 290.243561,643.019226 
	C285.591461,644.131714 289.351959,646.993408 288.470734,649.428467 
	C289.262848,651.254822 290.329956,653.014221 290.794617,654.920349 
	C292.101624,660.282043 294.391693,659.539612 297.378448,655.774414 
	C297.472137,656.302368 297.565826,656.830322 297.659546,657.358276 
	C299.107178,656.903076 300.554810,656.447876 302.784241,655.979675 
	C313.117767,652.904785 323.451263,649.829956 333.971741,646.699463 
	C334.760742,648.416626 335.333344,649.662842 335.905914,650.908997 
	C336.383942,651.004578 336.861969,651.100159 337.339996,651.195740 
	C338.013000,649.389648 338.686005,647.583557 339.505219,645.384949 
	C350.947571,644.056946 361.576294,636.182373 374.302277,638.695618 
	C375.254395,636.839539 376.147278,635.098816 377.660889,633.090027 
	C378.108917,633.067444 378.556915,633.044922 379.463776,633.556885 
	C382.025330,635.032043 384.586914,636.507141 387.148468,637.982239 
	C387.342255,637.688538 387.536011,637.394897 387.729797,637.101196 
	C386.812714,635.767456 385.895660,634.433716 384.369049,632.213440 
	C391.107452,631.370850 396.916168,630.709595 402.698730,629.868347 
	C403.904205,629.692993 405.027161,628.880432 406.162537,628.310547 
	C407.731689,627.523071 409.192780,626.387085 410.846710,625.925293 
	C417.142181,624.167480 423.542603,622.773682 429.797272,620.890137 
	C431.411255,620.404175 432.636627,618.627625 434.676147,617.182373 
	C435.130981,617.196777 435.585815,617.211182 436.599396,617.701355 
	C443.169708,618.273254 444.223419,616.979309 444.125122,610.687561 
	C444.054199,606.147949 445.254395,601.601074 445.391754,597.042419 
	C445.572357,591.045532 445.266296,585.033936 445.040405,578.363770 
	C445.102600,577.919739 445.164764,577.475769 445.974121,576.883911 
	C446.560089,576.334961 447.659790,575.779907 447.653412,575.237854 
	C447.581879,569.173035 447.339874,563.110168 447.029022,556.369995 
	C447.111816,555.923096 447.194611,555.476135 447.973907,554.834900 
	C451.252014,549.091553 450.336029,543.074829 449.023712,536.239014 
	C449.123993,535.173279 449.224274,534.107605 450.051910,533.004333 
	C452.705750,532.630432 452.689148,531.199524 452.550873,528.756470 
	C452.206604,522.674683 449.940948,516.284302 454.462891,510.612183 
	C455.022888,509.909760 454.570648,508.414520 454.619537,507.288055 
	C454.882202,501.242401 455.291626,495.199249 455.384583,489.151154 
	C455.472229,483.450287 455.230286,477.744385 455.007111,471.368103 
	C455.076416,470.920441 455.145721,470.472778 455.926178,469.821289 
	C456.240692,469.454529 456.622314,469.126312 456.858551,468.714661 
	C458.242340,466.303833 460.574707,463.920776 460.694183,461.437256 
	C460.830658,458.600952 458.949463,455.681458 458.022278,452.773468 
	C457.634491,451.557281 457.445679,450.277679 457.073669,448.357697 
	C457.133179,447.913757 457.192688,447.469788 457.894623,446.873962 
	C458.707428,445.445374 460.104706,444.062683 460.221191,442.579407 
	C460.543945,438.469025 460.333008,434.316681 460.333008,430.600311 
	C461.244202,430.048676 462.660156,429.692413 462.855621,428.994415 
	C464.520233,423.049774 461.065430,419.909424 455.964172,417.744476 
	C445.739655,421.700134 435.087280,425.147644 422.749878,422.976105 
	C423.970520,424.541534 424.432922,425.134552 424.851501,425.671387 
	C413.513794,427.177612 402.484375,428.662933 391.449036,430.102966 
	C381.417908,431.411957 371.380341,432.671783 361.153503,433.327393 
	C361.212372,432.898560 361.271240,432.469696 362.122772,432.013062 
	C363.077820,430.833832 364.860443,429.659058 364.866821,428.474731 
	C365.022156,399.556976 364.956848,370.638123 365.038940,341.719788 
	C365.046967,338.898956 364.099670,337.695068 361.133850,337.239532 
	C361.188904,336.502563 361.243958,335.765594 362.076569,334.876038 
	C364.187927,334.585541 366.298828,334.045868 368.410706,334.042053 
	C398.323151,333.987793 428.235748,333.983673 458.148193,334.043671 
	C460.966095,334.049316 463.782959,334.569061 467.737000,334.963501 
	C467.737000,331.548828 467.737000,327.990417 467.369995,324.199677 
	C467.369995,324.199677 467.414551,323.767639 468.305420,323.901855 
	C469.683411,323.826691 471.061401,323.751495 472.052063,323.697418 
	C471.571167,321.831268 471.036774,320.412842 470.859222,318.951080 
	C470.215027,313.647858 469.690521,308.330078 469.013062,302.357635 
	C469.083252,301.919678 469.153473,301.481689 469.883881,301.189056 
	C470.572449,302.300690 471.261017,303.412323 472.544556,305.484467 
	C472.753754,303.095367 472.952576,301.847351 472.957733,300.598511 
	C472.989594,292.868561 473.076874,285.136139 472.896027,277.410370 
	C472.860443,275.890686 471.734161,274.396545 470.577209,272.402863 
	C469.384796,272.256958 468.192413,272.111084 466.986633,271.193298 
	C466.262146,266.844910 462.875366,267.016327 459.711304,267.014984 
	C409.834717,266.993866 359.958130,266.992706 310.081573,267.034058 
	C308.460297,267.035400 306.567169,267.106354 305.291565,267.917053 
	C303.895599,268.804291 303.070343,270.589508 301.957184,272.434387 
	C301.957184,272.434387 301.873383,272.879303 301.109741,273.147919 
	C300.740662,275.174500 300.050537,277.200806 300.048950,279.227661 
	C299.994171,349.758575 300.012634,420.289490 299.964050,490.820404 
	C299.962616,492.882507 299.351349,494.944214 298.228027,496.824921 
	C297.818695,494.827911 297.053223,492.831177 297.051483,490.833832 
	C296.989929,420.186005 297.000031,349.538177 296.999817,278.890320 
	C296.999817,277.557343 297.308594,276.121918 296.912903,274.918549 
	C296.464203,273.553864 295.383392,272.397003 294.577423,271.149811 
	C293.719238,272.343018 292.161285,273.511841 292.118683,274.733429 
	C291.878082,281.636414 292.000153,288.552002 292.000122,295.463318 
	C291.999908,359.279633 292.026672,423.096008 291.931213,486.912201 
	C291.925720,490.594177 290.926849,494.274689 290.322357,498.421906 
	C290.345886,498.425903 291.534576,498.627777 292.723267,498.829651 
	C293.271210,499.572571 293.819153,500.315460 294.367096,501.058350 
	C292.421539,501.702911 290.475952,502.347473 288.530365,502.992065 
	C288.704559,503.371735 288.878754,503.751404 289.052948,504.131073 
	C290.042633,504.423981 291.032288,504.716858 292.011230,505.672882 
	C292.009918,506.115265 292.008636,506.557617 291.244965,507.011902 
	C289.602020,507.470612 287.959106,507.929321 285.889404,508.507202 
	C294.925568,515.356079 296.568756,515.856506 299.976471,512.676025 
	C298.273621,511.412262 296.633026,510.194702 295.247528,508.394562 
	C295.495239,507.596588 295.742950,506.798645 296.716705,506.078461 
	C299.481384,507.048981 302.246063,508.019531 305.000763,508.997833 
	C305.000763,508.997833 305.009369,508.988617 305.079224,509.708984 
	C307.266754,512.848877 314.880219,515.989014 318.464905,514.819580 
	C319.924103,514.343567 321.014587,512.737427 321.911102,511.959381 
	C318.776245,510.782471 316.383759,509.884247 313.989258,508.325836 
	C313.986298,507.885712 313.983337,507.445618 314.742279,507.001862 
	C315.503540,507.005310 316.264832,507.008759 317.170868,507.760315 
	C319.652954,509.481598 322.036377,510.303711 324.711060,507.087433 
	C326.366394,507.755005 328.213837,508.145813 329.643768,509.138184 
	C335.793304,513.405945 344.419067,507.931610 350.025330,514.370728 
	C350.275177,514.657715 351.659546,513.956970 352.515533,513.716248 
	C352.167908,512.816650 352.075562,511.580017 351.421692,511.084778 
	C349.867371,509.907593 348.047302,509.081268 346.334595,508.113190 
	C354.517639,509.160034 355.594971,502.089539 359.845398,498.005432 
	C362.560669,497.662842 365.275909,497.320221 368.093445,497.739502 
M365.623138,562.989746 
	C367.140381,562.307190 368.657623,561.624634 370.174866,560.942078 
	C369.969788,560.334839 369.764709,559.727661 369.559601,559.120483 
	C368.148773,559.120483 366.617035,558.767151 365.354065,559.199280 
	C363.187531,559.940491 361.454926,561.207458 365.623138,562.989746 
M461.738495,498.773254 
	C460.847260,499.149292 459.956055,499.525360 459.064819,499.901428 
	C459.808258,501.283752 460.551697,502.666077 461.295135,504.048401 
	C461.856140,503.812042 462.417114,503.575714 462.978119,503.339355 
	C462.697021,502.029266 462.415924,500.719147 461.738495,498.773254 
M479.013245,275.611908 
	C479.391907,276.726410 479.770538,277.840881 480.149200,278.955383 
	C480.748444,278.836060 481.347717,278.716736 481.946991,278.597382 
	C481.662384,276.862732 481.377777,275.128082 481.093140,273.393402 
	C480.414490,273.866852 479.735840,274.340302 479.013245,275.611908 
M297.332336,267.175446 
	C298.117065,267.148102 298.901825,267.120758 299.686554,267.093414 
	C299.537628,266.527344 299.388702,265.961304 299.239777,265.395264 
	C298.551971,265.762939 297.864136,266.130615 297.332336,267.175446 
M485.502716,268.174988 
	C485.132874,268.861938 484.763031,269.548889 484.393158,270.235809 
	C484.958801,270.385925 485.524414,270.536072 486.090057,270.686188 
	C486.119659,269.901428 486.149261,269.116699 485.502716,268.174988 
M457.852417,515.509216 
	C457.428772,515.207520 457.005127,514.905823 456.581482,514.604126 
	C456.468903,515.050232 456.356323,515.496399 456.243713,515.942505 
	C456.739441,515.995911 457.235138,516.049316 457.852417,515.509216 
M460.199951,479.602112 
	C460.204254,479.212097 460.208527,478.822052 460.212830,478.432037 
	C460.051147,478.430450 459.748962,478.417999 459.748108,478.428833 
	C459.718109,478.817047 459.716248,479.207428 460.199951,479.602112 
M385.607666,511.798218 
	C385.213989,511.793976 384.820282,511.789734 384.426605,511.785522 
	C384.425110,511.948883 384.412628,512.254211 384.423645,512.255066 
	C384.815369,512.285339 385.209259,512.287109 385.607666,511.798218 
z"/>
<path fill="#FFFFFC" opacity="1.000000" stroke="none" 
	d="
M260.021790,382.000000 
	C260.021790,472.572113 260.021790,562.644226 260.021790,653.832458 
	C252.070404,651.779602 245.045013,650.043823 238.062439,648.150146 
	C196.990524,637.011658 155.929001,625.834900 114.862862,614.675110 
	C109.890625,613.323853 104.839401,612.207214 99.979080,610.533691 
	C98.490601,610.021057 96.473244,608.018982 96.465240,606.688354 
	C96.354141,588.205261 96.544083,569.720276 96.691048,551.236023 
	C96.698708,550.273438 96.980621,549.312988 97.279297,547.451050 
	C131.643875,556.779724 165.677597,566.018616 200.552811,575.485962 
	C200.552811,474.513947 200.552811,374.201935 200.552811,273.500153 
	C220.647217,273.500153 240.015427,273.500153 260.021759,273.500153 
	C260.021759,309.639648 260.021759,345.569824 260.021790,382.000000 
z"/>
<path fill="#FDDD2B" opacity="1.000000" stroke="none" 
	d="
M283.588348,208.024002 
	C283.669922,212.801483 283.043640,217.588882 283.042175,222.376480 
	C282.991486,386.041962 282.998077,549.707458 283.011566,713.372986 
	C283.011902,717.289673 282.249359,721.842224 289.192017,721.268921 
	C291.222198,720.998413 292.611115,720.996765 294.000000,720.995117 
	C294.000000,720.995117 294.002411,721.488037 294.003052,721.734253 
	C290.052917,723.055725 286.102142,724.130981 281.390961,725.413208 
	C281.228455,722.985352 281.012115,721.261169 281.011963,719.536987 
	C280.996643,550.764099 280.991272,381.991180 281.087830,213.218307 
	C281.088837,211.489807 282.447144,209.762085 283.588348,208.024002 
z"/>
<path fill="#FDDD2B" opacity="1.000000" stroke="none" 
	d="
M468.303589,544.708008 
	C467.712219,540.133423 467.021912,535.247253 467.205841,530.394287 
	C467.473724,523.326416 468.343536,516.279968 469.006287,509.228973 
	C470.054321,498.078979 471.166870,486.934967 472.206238,475.784180 
	C472.848083,468.897980 473.406830,462.003998 473.999268,455.113220 
	C474.366425,450.842285 474.600342,446.553589 475.174866,442.310913 
	C475.327759,441.181549 476.515656,440.192291 477.597748,439.070282 
	C477.311615,445.391510 476.602631,451.776215 476.011505,458.171844 
	C474.676331,472.616943 473.353210,487.063446 472.111877,501.516846 
	C470.884277,515.810242 469.763184,530.112793 468.303589,544.708008 
z"/>
<path fill="#FDDD2B" opacity="1.000000" stroke="none" 
	d="
M356.391449,704.987183 
	C356.906677,704.002869 357.633026,702.531677 358.755432,702.106873 
	C365.891724,699.406128 372.970154,696.333435 380.350098,694.556030 
	C388.106476,692.688110 396.179047,692.133057 404.571472,691.010742 
	C404.565857,691.633484 404.208618,692.653137 403.623230,692.807556 
	C388.025055,696.920715 372.403412,700.944824 356.391449,704.987183 
z"/>
<path fill="#FDDD2B" opacity="1.000000" stroke="none" 
	d="
M491.302856,285.708862 
	C490.714264,281.784180 489.954132,277.537537 490.205444,273.351624 
	C490.914459,261.543396 491.935303,249.750183 493.065582,237.973343 
	C493.383484,234.661102 494.503052,231.425812 495.635437,228.081955 
	C494.541595,247.143997 493.067322,266.279297 491.302856,285.708862 
z"/>
<path fill="#FDDD2B" opacity="1.000000" stroke="none" 
	d="
M417.430481,688.022156 
	C421.410004,686.358032 425.746735,684.504883 430.215240,683.059143 
	C437.219879,680.792786 444.384949,679.004456 451.323669,676.563477 
	C453.264557,675.880737 454.649261,673.617065 456.640259,672.040466 
	C457.923553,676.762512 455.688416,678.531555 451.149292,679.578308 
	C441.418427,681.822205 431.852570,684.778015 422.203064,687.382507 
	C420.796478,687.762207 419.301086,687.812927 417.430481,688.022156 
z"/>
<path fill="#FDDD2B" opacity="1.000000" stroke="none" 
	d="
M477.988892,436.564941 
	C477.368958,435.049530 476.063080,433.019836 476.278809,431.167297 
	C476.908386,425.760773 478.229462,420.457794 475.331604,415.236664 
	C474.895935,414.451752 475.234985,412.890900 475.747711,411.992645 
	C477.106964,409.611481 478.757629,407.396637 480.637878,405.057800 
	C479.988281,415.377167 478.993164,425.754395 477.988892,436.564941 
z"/>
<path fill="#FDDD2B" opacity="1.000000" stroke="none" 
	d="
M457.300903,666.712280 
	C456.713104,659.121582 456.330322,651.239136 456.255188,643.353821 
	C456.248077,642.609680 458.174713,641.847107 459.590118,641.047363 
	C459.181366,649.474365 458.386017,657.947083 457.300903,666.712280 
z"/>
<path fill="#FDDD2B" opacity="1.000000" stroke="none" 
	d="
M484.300354,361.717072 
	C482.371704,353.500153 481.743805,345.086426 486.613037,337.067688 
	C486.182983,345.144623 485.385345,353.286957 484.300354,361.717072 
z"/>
<path fill="#FDDD2B" opacity="1.000000" stroke="none" 
	d="
M462.296082,612.709717 
	C458.766846,606.953918 460.262360,600.730164 461.425934,594.552002 
	C461.534393,593.975891 462.607330,593.581360 463.614746,593.053711 
	C463.527374,599.475525 463.057709,605.946167 462.296082,612.709717 
z"/>
<path fill="#FDDD2B" opacity="1.000000" stroke="none" 
	d="
M297.409668,720.999268 
	C298.289429,719.397400 299.355591,716.724243 300.911499,716.399780 
	C305.008942,715.545288 309.319183,715.711487 313.778503,715.749878 
	C308.614655,717.685242 303.217010,719.341919 297.409668,720.999268 
z"/>
<path fill="#FDDD2B" opacity="1.000000" stroke="none" 
	d="
M319.393188,714.962524 
	C319.396942,714.329468 319.672913,713.176697 320.195740,713.050964 
	C326.943115,711.429016 333.725616,709.953369 340.750244,708.721008 
	C333.927521,710.974182 326.853821,712.947205 319.393188,714.962524 
z"/>
<path fill="#FDDD2B" opacity="1.000000" stroke="none" 
	d="
M460.309021,632.717163 
	C458.889862,626.946411 457.142242,620.841003 461.623108,615.068115 
	C461.531769,620.808228 461.063538,626.616394 460.309021,632.717163 
z"/>
<path fill="#FDDD2B" opacity="1.000000" stroke="none" 
	d="
M482.007202,387.577698 
	C480.750488,381.602600 479.398987,375.200714 483.613342,369.072815 
	C483.330414,375.054382 482.676178,381.106293 482.007202,387.577698 
z"/>
<path fill="#FDDD2B" opacity="1.000000" stroke="none" 
	d="
M466.298523,565.714478 
	C464.674225,561.230042 463.449371,556.466858 467.595642,552.071960 
	C467.507172,556.477112 467.046875,560.951477 466.298523,565.714478 
z"/>
<path fill="#FDDD2B" opacity="1.000000" stroke="none" 
	d="
M488.300018,317.713867 
	C488.079407,314.394043 488.148712,310.784607 488.607788,307.087585 
	C488.861694,310.474762 488.725800,313.949493 488.300018,317.713867 
z"/>
<path fill="#FDDD2B" opacity="1.000000" stroke="none" 
	d="
M487.299683,329.714966 
	C487.081940,326.725800 487.152344,323.449127 487.609314,320.087036 
	C487.859894,323.143585 487.723877,326.285492 487.299683,329.714966 
z"/>
<path fill="#FDDD2B" opacity="1.000000" stroke="none" 
	d="
M490.288635,295.731262 
	C490.085144,293.720306 490.164856,291.437042 490.615417,289.077423 
	C490.848145,291.153687 490.709991,293.306366 490.288635,295.731262 
z"/>
<path fill="#FDDD2B" opacity="1.000000" stroke="none" 
	d="
M343.348572,708.945190 
	C344.527557,708.141724 346.055450,707.313232 347.793762,706.749268 
	C346.568604,707.649353 345.133026,708.284790 343.348572,708.945190 
z"/>
<path fill="#FDDD2B" opacity="1.000000" stroke="none" 
	d="
M497.279541,211.779816 
	C496.360596,210.899796 495.707886,209.781143 495.026062,208.336807 
	C497.641632,207.891678 498.599335,208.990326 497.279541,211.779816 
z"/>
<path fill="#FDDD2B" opacity="1.000000" stroke="none" 
	d="
M351.323303,706.933105 
	C351.465515,706.336548 351.927368,705.709778 352.711914,705.050415 
	C352.570679,705.646179 352.106812,706.274475 351.323303,706.933105 
z"/>
<path fill="#FDDD2B" opacity="1.000000" stroke="none" 
	d="
M407.300171,690.986572 
	C407.557800,690.522156 408.113159,690.039368 408.839111,689.788818 
	C408.539093,690.336792 408.068512,690.652466 407.300171,690.986572 
z"/>
<path fill="#FDDD2B" opacity="1.000000" stroke="none" 
	d="
M481.251892,395.835449 
	C481.134583,395.358124 481.259125,394.710144 481.672241,394.028870 
	C481.805145,394.552002 481.649445,395.108398 481.251892,395.835449 
z"/>
<path fill="#FFFFFD" opacity="1.000000" stroke="none" 
	d="
M379.004944,633.022400 
	C378.556915,633.044922 378.108917,633.067444 376.967346,633.156372 
	C375.779785,633.286621 375.268372,633.289062 374.794098,633.423035 
	C352.256104,639.789978 329.720917,646.166748 307.186859,652.547424 
	C304.118561,653.416138 301.895233,653.171814 301.905823,649.133606 
	C301.952606,631.318298 301.877258,613.502258 302.060852,595.688599 
	C302.075531,594.265015 303.414612,592.114380 304.674561,591.589844 
	C307.846222,590.269348 311.324799,589.686035 315.124878,588.876526 
	C319.262543,588.305847 323.628967,589.624023 326.381134,585.228760 
	C327.133972,585.094360 327.573181,585.066956 328.233795,585.300049 
	C329.988037,584.795898 331.520874,584.031372 333.365295,583.161377 
	C334.112518,583.018860 334.548187,582.981812 335.215942,583.222290 
	C337.937744,584.309875 340.206024,584.564697 341.400696,581.141418 
	C343.156616,580.656433 344.567688,580.293091 346.179810,580.194946 
	C348.267212,579.706665 350.153564,578.953186 352.352234,577.999512 
	C354.106262,577.521667 355.547974,577.244141 357.208221,577.241211 
	C358.583862,576.963928 359.740967,576.411987 360.948364,575.884033 
	C360.998627,575.907959 360.887390,575.903259 361.106049,575.890991 
	C361.617859,575.789795 361.841156,575.612793 362.320435,575.244202 
	C363.098724,575.099792 363.551178,575.058899 364.242462,575.287476 
	C366.650055,576.166687 368.823517,576.786377 369.430115,573.246033 
	C370.514221,573.068726 371.250458,573.018066 372.223694,573.246704 
	C374.724030,574.223816 376.894867,574.736450 377.344055,571.124390 
	C378.039429,570.984253 378.445892,570.948120 379.158875,570.944824 
	C379.974365,570.699707 380.483368,570.421753 381.201721,570.053528 
	C381.411102,569.963257 381.865692,569.927124 382.283447,569.968628 
	C383.812439,570.174866 384.933777,570.289917 386.033142,570.513123 
	C390.325745,571.384827 391.638489,569.924072 390.941772,564.659363 
	C391.012817,563.903320 391.101532,563.475586 391.588593,563.017273 
	C395.843079,558.222717 394.064484,553.084106 392.944519,547.610474 
	C392.823517,546.470337 392.741943,545.711609 392.770294,544.566101 
	C392.865845,543.110901 392.851440,542.042480 392.987122,540.754822 
	C393.218994,540.378540 393.300751,540.221436 393.716980,539.950806 
	C396.921051,536.453308 396.576141,532.781677 395.002014,528.575439 
	C395.100739,526.452881 395.218994,524.756592 395.675629,522.947083 
	C398.774933,518.394226 398.750061,513.757080 396.965759,508.625427 
	C397.020660,507.514465 397.105103,506.775360 397.548462,505.930511 
	C397.928619,503.213623 397.949799,500.602417 397.960632,497.616760 
	C398.128632,496.519470 398.306946,495.796661 398.794342,494.952881 
	C398.966705,493.057220 399.398041,490.932159 398.567444,489.585358 
	C397.125153,487.246674 395.395538,487.254852 394.496704,490.626007 
	C392.394714,490.828735 390.699615,490.914124 388.745789,490.717407 
	C385.678864,490.201752 382.421875,488.475067 380.953674,492.699646 
	C380.799530,492.795410 380.645416,492.891174 379.896545,493.039886 
	C378.543701,493.093323 377.785583,493.093842 376.891510,492.858093 
	C376.146759,492.941376 375.537933,493.260956 374.578217,493.706848 
	C373.486877,493.895020 372.746429,493.956940 371.831177,493.766846 
	C370.747162,493.872681 369.837921,494.230499 368.532776,494.704590 
	C366.762573,494.891510 365.388367,494.962219 363.787720,494.754333 
	C361.350830,495.174927 359.140289,495.874115 356.694092,496.704834 
	C356.313385,496.942841 356.168365,497.049347 355.628723,497.103577 
	C354.173492,497.071106 353.112823,497.090851 351.799438,496.807617 
	C348.352356,495.888153 345.097778,495.025818 342.535278,498.726929 
	C340.762543,498.904449 339.387421,498.968719 337.766022,498.752655 
	C334.944885,498.000275 332.167328,496.901611 330.626526,500.718903 
	C329.883972,500.972595 329.456879,501.107941 328.658539,501.161682 
	C327.527740,501.060181 326.768219,501.040283 325.775238,500.745056 
	C324.024017,500.964905 322.506226,501.460052 320.718262,502.127625 
	C319.632568,502.544617 318.816986,502.789185 317.666290,502.994873 
	C316.894897,503.051758 316.458618,503.147552 315.653992,503.154327 
	C314.527802,503.052643 313.769928,503.039948 312.753601,502.736023 
	C309.624786,502.444763 306.754456,502.444763 303.982910,502.444763 
	C303.982910,484.634766 303.975372,467.191742 303.984253,449.748718 
	C304.014252,390.963776 304.050079,332.178864 304.390625,273.330627 
	C305.110382,273.315094 305.523163,273.362854 306.087036,273.761353 
	C308.143433,274.404022 310.048523,274.948944 311.954132,274.950806 
	C359.769989,274.997894 407.585907,274.976349 455.401764,275.015350 
	C458.367798,275.017792 461.339813,275.612976 464.295746,275.518158 
	C465.245728,275.487671 466.152924,274.123749 467.386688,273.301147 
	C468.108368,273.275879 468.523071,273.319336 469.004059,273.633606 
	C469.659210,274.282257 470.248047,274.660126 470.896118,275.468323 
	C470.839081,277.910919 470.722870,279.923126 470.273376,282.061340 
	C467.704224,287.000580 467.032471,291.914642 469.009338,297.403748 
	C469.096375,298.887695 469.160004,299.965698 469.223663,301.043732 
	C469.153473,301.481689 469.083252,301.919678 468.966797,303.045319 
	C468.804260,304.464478 468.687988,305.195923 468.222412,306.028442 
	C464.507599,309.854584 465.798737,313.930756 467.020325,318.310303 
	C467.183380,319.441956 467.304413,320.261810 467.394928,321.380463 
	C467.427032,321.869507 467.489716,322.059692 467.433777,322.488464 
	C467.348297,323.073914 467.381439,323.420776 467.414551,323.767639 
	C467.414551,323.767639 467.369995,324.199677 467.294739,324.594543 
	C467.006714,325.967773 466.793976,326.946075 466.248596,328.010376 
	C465.348755,329.527161 464.781586,330.957947 463.824982,332.553375 
	C448.121155,332.762543 432.806702,332.859924 417.492432,332.837463 
	C400.683502,332.812836 383.874695,332.677704 366.937775,332.263367 
	C364.626190,331.055939 362.266144,329.349274 361.067200,333.477112 
	C361.133179,334.206512 361.216095,334.617584 361.299011,335.028625 
	C361.243958,335.765594 361.188904,336.502563 361.118958,337.942627 
	C361.177521,339.113129 361.250977,339.580505 361.230255,340.504578 
	C361.115784,350.740356 361.055939,360.519653 361.083435,370.298645 
	C361.139313,390.182526 361.242371,410.066254 361.218933,430.293396 
	C361.184631,431.104767 361.257385,431.572815 361.330078,432.040863 
	C361.271240,432.469696 361.212372,432.898560 361.142578,434.028778 
	C362.491425,435.424744 363.955017,436.870392 365.195129,436.699005 
	C379.313934,434.747559 393.404358,432.586487 407.490875,430.407013 
	C422.889923,428.024445 438.282990,425.601379 453.665222,423.113007 
	C457.935150,422.422272 459.376526,423.955597 458.862274,428.243866 
	C458.114502,434.479218 457.769135,440.762817 457.252197,447.025848 
	C457.192688,447.469788 457.133179,447.913757 457.002777,449.087830 
	C456.359589,456.553650 455.787323,463.289398 455.215027,470.025116 
	C455.145721,470.472778 455.076416,470.920441 454.832275,472.019592 
	C453.492889,484.378601 452.245728,496.078735 451.191528,507.796234 
	C450.435516,516.199402 449.937653,524.625854 449.324554,533.041870 
	C449.224274,534.107605 449.123993,535.173279 448.846863,536.955078 
	C448.205811,543.457214 447.741608,549.243225 447.277405,555.029236 
	C447.194611,555.476135 447.111816,555.923096 446.846954,557.027344 
	C446.185577,564.133728 445.706299,570.582703 445.226990,577.031738 
	C445.164764,577.475769 445.102600,577.919739 444.976532,579.084045 
	C443.761353,590.138062 442.384613,600.454102 441.573700,610.814453 
	C441.264923,614.759460 439.254608,616.273682 436.040649,617.225525 
	C435.585815,617.211182 435.130981,617.196777 433.987518,617.258301 
	C421.653961,620.573608 409.991547,623.751892 398.370880,627.076111 
	C391.879761,628.933105 385.457977,631.032349 379.004944,633.022400 
M397.090027,564.300598 
	C397.595947,564.561951 398.101837,564.823303 398.607697,565.084717 
	C398.603516,564.342102 398.599335,563.599487 398.595154,562.856873 
	C398.091522,563.123291 397.587891,563.389771 397.090027,564.300598 
z"/>
<path fill="#FFDE25" opacity="1.000000" stroke="none" 
	d="
M305.010803,508.990051 
	C302.246063,508.019531 299.481384,507.048981 296.123108,505.770142 
	C294.360321,505.311157 293.191162,505.160461 292.021973,505.009766 
	C291.032288,504.716858 290.042633,504.423981 289.052948,504.131073 
	C288.878754,503.751404 288.704559,503.371735 288.530365,502.992065 
	C290.475952,502.347473 292.421539,501.702911 294.367096,501.058350 
	C293.819153,500.315460 293.271210,499.572571 292.723267,498.829651 
	C291.534576,498.627777 290.345886,498.425903 290.322357,498.421906 
	C290.926849,494.274689 291.925720,490.594177 291.931213,486.912201 
	C292.026672,423.096008 291.999908,359.279633 292.000122,295.463318 
	C292.000153,288.552002 291.878082,281.636414 292.118683,274.733429 
	C292.161285,273.511841 293.719238,272.343018 294.577393,271.149811 
	C295.383392,272.397003 296.464203,273.553864 296.912903,274.918549 
	C297.308594,276.121918 296.999817,277.557343 296.999817,278.890320 
	C297.000031,349.538177 296.989929,420.186005 297.051483,490.833832 
	C297.053223,492.831177 297.818695,494.827911 298.659210,497.276855 
	C299.558502,500.328766 302.929993,506.545258 304.920471,508.516418 
	C305.014587,508.609650 304.983551,508.829285 305.010803,508.990051 
z"/>
<path fill="#FFDE25" opacity="1.000000" stroke="none" 
	d="
M326.965027,578.982910 
	C328.414642,579.634644 329.864227,580.286438 331.441040,581.241699 
	C330.342255,582.326721 329.116272,583.108215 327.472565,583.914307 
	C324.113647,583.628784 321.175476,583.150574 318.229645,583.097290 
	C317.159882,583.077881 315.753174,583.808228 315.051910,584.653931 
	C312.983215,587.148621 310.782166,588.284424 307.336151,587.761475 
	C302.884521,587.085815 300.020203,589.940552 300.012390,594.386230 
	C299.989166,607.653992 300.115051,620.923401 299.919464,634.188232 
	C299.876221,637.121460 298.749664,640.038635 298.245880,642.385681 
	C298.884064,644.778931 299.446838,646.889465 299.639282,649.004333 
	C297.845978,649.339111 296.422974,649.669556 294.995422,649.634766 
	C293.660583,647.179688 292.330292,645.089844 291.000000,643.000000 
	C291.333282,628.732788 291.806335,614.466003 291.856964,600.197815 
	C291.865051,597.920959 290.479797,595.164490 288.866058,593.452148 
	C285.139069,589.497498 284.989258,588.335388 288.684143,584.395386 
	C289.436218,583.593445 289.017212,581.765625 289.320648,580.452942 
	C289.728058,578.690308 290.313049,576.968750 290.821777,575.229614 
	C292.545746,575.818176 294.795380,575.922119 295.880768,577.099426 
	C297.937439,579.330261 299.940216,579.815796 301.720917,577.590271 
	C304.332428,574.326355 305.925293,574.304749 307.536224,578.275635 
	C307.747162,578.795532 309.312988,578.765808 311.066162,578.986816 
	C313.575409,578.982910 315.269745,578.982910 316.964111,578.982910 
	C319.357941,578.985535 321.751740,578.988159 324.914185,578.985229 
	C326.110199,578.980713 326.537628,578.981812 326.965027,578.982910 
M293.973694,586.159485 
	C293.288300,587.500183 292.602905,588.840820 291.917480,590.181519 
	C293.390564,590.090088 294.863678,589.998657 296.336761,589.907227 
	C295.802063,588.623474 295.267365,587.339783 293.973694,586.159485 
z"/>
<path fill="#FFDE25" opacity="1.000000" stroke="none" 
	d="
M301.996338,271.983368 
	C303.070343,270.589508 303.895599,268.804291 305.291565,267.917053 
	C306.567169,267.106354 308.460297,267.035400 310.081573,267.034058 
	C359.958130,266.992706 409.834717,266.993866 459.711304,267.014984 
	C462.875366,267.016327 466.262146,266.844910 466.524719,271.589844 
	C411.373993,271.985382 356.685181,271.984375 301.996338,271.983368 
z"/>
<path fill="#F9DE3D" opacity="1.000000" stroke="none" 
	d="
M305.005798,508.993958 
	C304.983551,508.829285 305.014587,508.609650 304.920471,508.516418 
	C302.929993,506.545258 299.558502,500.328766 299.057434,497.367462 
	C299.351349,494.944214 299.962616,492.882507 299.964050,490.820404 
	C300.012634,420.289490 299.994171,349.758575 300.048950,279.227661 
	C300.050537,277.200806 300.740662,275.174500 301.556488,273.077393 
	C302.003235,273.006897 302.128540,273.134583 302.052307,273.586792 
	C301.929596,284.022644 301.843536,294.006317 301.843140,303.989990 
	C301.840668,369.227997 301.864960,434.465973 301.840485,499.703979 
	C301.839355,502.717346 301.598694,505.619049 306.074951,505.378174 
	C307.356812,506.227753 308.579193,506.734283 309.801575,507.240814 
	C309.888489,507.018921 309.975372,506.797058 310.062256,506.575165 
	C309.360504,506.022675 308.658752,505.470154 308.220123,504.688416 
	C309.992859,503.981873 311.502472,503.504578 313.012085,503.027283 
	C313.769928,503.039948 314.527802,503.052643 315.590027,503.459229 
	C315.256409,504.903931 314.618378,505.954712 313.980347,507.005493 
	C313.983337,507.445618 313.986298,507.885712 313.541473,508.656982 
	C310.398926,508.988312 307.704132,508.988464 305.009369,508.988617 
	C305.009369,508.988617 305.000763,508.997833 305.005798,508.993958 
z"/>
<path fill="#FFDE25" opacity="1.000000" stroke="none" 
	d="
M392.837036,540.973999 
	C392.851440,542.042480 392.865845,543.110901 392.395905,544.578735 
	C391.042847,545.809570 389.321228,546.788940 389.435791,547.449951 
	C390.736969,554.957031 390.899445,562.126099 385.083374,568.096680 
	C385.067169,568.084961 385.083954,568.059509 384.870361,568.093567 
	C384.375977,568.235291 384.163208,568.420837 383.689514,568.779663 
	C382.905945,568.892212 382.451294,568.909363 381.757263,568.664490 
	C377.079498,569.489502 372.663696,570.688354 368.188293,571.592102 
	C366.922607,571.847656 365.449158,571.362549 364.130341,571.000732 
	C362.060394,570.432678 360.040894,569.680908 358.000000,569.006958 
	C358.369629,565.174072 359.507172,562.748535 363.989838,565.246277 
	C364.997559,565.807800 366.490784,565.620667 367.752136,565.570129 
	C369.057129,565.517883 370.715668,564.600708 371.589874,565.120667 
	C375.981232,567.732361 378.928009,565.851074 382.692108,563.279785 
	C385.964905,561.044128 386.693726,559.196716 385.001709,556.140381 
	C382.619843,551.837769 381.311432,547.777344 385.219116,543.523987 
	C385.700226,543.000305 384.940887,540.884094 384.260620,539.823853 
	C381.093414,534.888000 381.491119,532.091003 385.436890,527.571228 
	C386.485535,526.370056 386.479736,524.046509 386.528992,522.226685 
	C386.588196,520.038757 386.188995,517.838440 385.988281,515.643494 
	C386.475037,515.492065 386.961792,515.340698 387.448547,515.189270 
	C388.217133,516.577942 388.985718,517.966675 389.754333,519.355347 
	C390.169556,519.370056 390.584808,519.384827 391.000031,519.399536 
	C391.000031,516.164062 390.766479,512.904480 391.098083,509.703339 
	C391.264984,508.092102 392.457916,506.587189 393.599487,505.487915 
	C393.378204,514.080017 392.593292,522.210754 392.180847,530.360291 
	C392.002838,533.878113 392.594849,537.434937 392.837036,540.973999 
z"/>
<path fill="#F9DE3D" opacity="1.000000" stroke="none" 
	d="
M300.009613,649.000000 
	C299.446838,646.889465 298.884064,644.778931 298.245880,642.385681 
	C298.749664,640.038635 299.876221,637.121460 299.919464,634.188232 
	C300.115051,620.923401 299.989166,607.653992 300.012390,594.386230 
	C300.020203,589.940552 302.884521,587.085815 307.336151,587.761475 
	C310.782166,588.284424 312.983215,587.148621 315.051910,584.653931 
	C315.753174,583.808228 317.159882,583.077881 318.229645,583.097290 
	C321.175476,583.150574 324.113647,583.628784 327.547485,583.991882 
	C328.040131,584.044922 328.187347,584.198792 328.130157,584.406128 
	C328.072968,584.613525 328.012360,585.039551 328.012360,585.039551 
	C327.573181,585.066956 327.133972,585.094360 326.005249,585.173584 
	C321.770599,586.419312 318.225433,587.613220 314.680298,588.807129 
	C311.324799,589.686035 307.846222,590.269348 304.674561,591.589844 
	C303.414612,592.114380 302.075531,594.265015 302.060852,595.688599 
	C301.877258,613.502258 301.952606,631.318298 301.905823,649.133606 
	C301.895233,653.171814 304.118561,653.416138 307.186859,652.547424 
	C329.720917,646.166748 352.256104,639.789978 374.794098,633.423035 
	C375.268372,633.289062 375.779785,633.286621 376.657013,633.290466 
	C376.147278,635.098816 375.254395,636.839539 374.302277,638.695618 
	C361.576294,636.182373 350.947571,644.056946 339.505219,645.384949 
	C338.686005,647.583557 338.013000,649.389648 337.339996,651.195740 
	C336.861969,651.100159 336.383942,651.004578 335.905914,650.908997 
	C335.333344,649.662842 334.760742,648.416626 333.971741,646.699463 
	C323.451263,649.829956 313.117767,652.904785 302.265808,655.694031 
	C301.166931,654.272278 300.586517,653.136108 300.007843,651.625000 
	C300.009583,650.500000 300.009583,649.750000 300.009613,649.000000 
z"/>
<path fill="#F9DE3D" opacity="1.000000" stroke="none" 
	d="
M457.573425,446.949890 
	C457.769135,440.762817 458.114502,434.479218 458.862274,428.243866 
	C459.376526,423.955597 457.935150,422.422272 453.665222,423.113007 
	C438.282990,425.601379 422.889923,428.024445 407.490875,430.407013 
	C393.404358,432.586487 379.313934,434.747559 365.195129,436.699005 
	C363.955017,436.870392 362.491425,435.424744 361.238647,434.341736 
	C371.380341,432.671783 381.417908,431.411957 391.449036,430.102966 
	C402.484375,428.662933 413.513794,427.177612 424.851501,425.671387 
	C424.432922,425.134552 423.970520,424.541534 422.749878,422.976105 
	C435.087280,425.147644 445.739655,421.700134 455.964172,417.744476 
	C461.065430,419.909424 464.520233,423.049774 462.855621,428.994415 
	C462.660156,429.692413 461.244202,430.048676 460.333008,430.600311 
	C460.333008,434.316681 460.543945,438.469025 460.221191,442.579407 
	C460.104706,444.062683 458.707428,445.445374 457.573425,446.949890 
z"/>
<path fill="#FFDE25" opacity="1.000000" stroke="none" 
	d="
M314.361328,507.003662 
	C314.618378,505.954712 315.256409,504.903931 315.958374,503.548218 
	C316.458618,503.147552 316.894897,503.051758 317.953613,503.277649 
	C322.173035,503.312500 326.537964,506.433350 329.029816,501.243256 
	C329.456879,501.107941 329.883972,500.972595 330.876709,500.858521 
	C331.622498,500.942505 331.802673,501.005249 332.259521,501.338379 
	C336.521271,501.175873 340.505981,500.739716 344.491577,500.311707 
	C345.947388,500.155396 347.463348,500.216187 348.843964,499.810669 
	C349.957062,499.483765 350.907959,498.604523 351.976807,497.757629 
	C352.022797,497.544891 352.052185,497.110596 352.052185,497.110596 
	C353.112823,497.090851 354.173492,497.071106 355.848663,497.339172 
	C357.308807,497.757538 358.154388,497.888123 359.000000,498.018677 
	C355.594971,502.089539 354.517639,509.160034 346.334595,508.113190 
	C348.047302,509.081268 349.867371,509.907593 351.421692,511.084778 
	C352.075562,511.580017 352.167908,512.816650 352.515503,513.716248 
	C351.659546,513.956970 350.275177,514.657715 350.025330,514.370728 
	C344.419067,507.931610 335.793304,513.405945 329.643768,509.138184 
	C328.213837,508.145813 326.366394,507.755005 323.906921,507.051025 
	C321.077209,507.013824 319.051666,507.013000 317.026093,507.012207 
	C316.264832,507.008759 315.503540,507.005310 314.361328,507.003662 
z"/>
<path fill="#F9DE3D" opacity="1.000000" stroke="none" 
	d="
M361.324432,340.047913 
	C361.250977,339.580505 361.177521,339.113129 361.212372,338.303345 
	C364.099670,337.695068 365.046967,338.898956 365.038940,341.719788 
	C364.956848,370.638123 365.022156,399.556976 364.866821,428.474731 
	C364.860443,429.659058 363.077820,430.833832 361.726440,432.026978 
	C361.257385,431.572815 361.184631,431.104767 361.583435,430.177185 
	C362.372589,428.668701 362.965637,427.620209 362.967560,426.570648 
	C363.018341,398.934021 363.029175,371.297180 362.936737,343.660767 
	C362.932709,342.454712 361.885651,341.252106 361.324432,340.047913 
z"/>
<path fill="#F9DE3D" opacity="1.000000" stroke="none" 
	d="
M301.976746,272.208862 
	C356.685181,271.984375 411.373993,271.985382 466.531433,271.975769 
	C468.192413,272.111084 469.384796,272.256958 470.784485,272.706482 
	C470.991730,273.010132 470.875336,273.128723 470.546692,273.120667 
	C469.791260,273.196014 469.364532,273.279419 468.937775,273.362823 
	C468.523071,273.319336 468.108368,273.275879 466.922363,273.190247 
	C413.733093,273.126068 361.315063,273.102234 308.897064,273.095764 
	C307.910034,273.095642 306.922974,273.301086 305.935944,273.410614 
	C305.523163,273.362854 305.110382,273.315094 304.076843,273.218750 
	C303.013580,273.158295 302.571075,273.146423 302.128540,273.134583 
	C302.128540,273.134583 302.003235,273.006897 301.938293,272.943115 
	C301.873383,272.879303 301.957184,272.434387 301.976746,272.208862 
z"/>
<path fill="#F9DE3D" opacity="1.000000" stroke="none" 
	d="
M379.234375,633.289673 
	C385.457977,631.032349 391.879761,628.933105 398.370880,627.076111 
	C409.991547,623.751892 421.653961,620.573608 433.669678,617.389099 
	C432.636627,618.627625 431.411255,620.404175 429.797272,620.890137 
	C423.542603,622.773682 417.142181,624.167480 410.846710,625.925293 
	C409.192780,626.387085 407.731689,627.523071 406.162537,628.310547 
	C405.027161,628.880432 403.904205,629.692993 402.698730,629.868347 
	C396.916168,630.709595 391.107452,631.370850 384.369049,632.213440 
	C385.895660,634.433716 386.812714,635.767456 387.729797,637.101196 
	C387.536011,637.394897 387.342255,637.688538 387.148468,637.982239 
	C384.586914,636.507141 382.025330,635.032043 379.234375,633.289673 
z"/>
<path fill="#F9DE3D" opacity="1.000000" stroke="none" 
	d="
M449.688232,533.023071 
	C449.937653,524.625854 450.435516,516.199402 451.191528,507.796234 
	C452.245728,496.078735 453.492889,484.378601 454.895386,472.355865 
	C455.230286,477.744385 455.472229,483.450287 455.384583,489.151154 
	C455.291626,495.199249 454.882202,501.242401 454.619537,507.288055 
	C454.570648,508.414520 455.022888,509.909760 454.462891,510.612183 
	C449.940948,516.284302 452.206604,522.674683 452.550873,528.756470 
	C452.689148,531.199524 452.705750,532.630432 449.688232,533.023071 
z"/>
<path fill="#F9DE3D" opacity="1.000000" stroke="none" 
	d="
M357.757904,569.171448 
	C360.040894,569.680908 362.060394,570.432678 364.130341,571.000732 
	C365.449158,571.362549 366.922607,571.847656 368.188293,571.592102 
	C372.663696,570.688354 377.079498,569.489502 381.725555,568.914917 
	C381.910706,569.593933 381.888184,569.760559 381.865692,569.927124 
	C381.865692,569.927124 381.411102,569.963257 380.901611,570.012146 
	C379.878845,570.344666 379.365601,570.628357 378.852356,570.911987 
	C378.445892,570.948120 378.039429,570.984253 376.995300,571.080688 
	C374.900696,571.749817 373.443726,572.358643 371.986755,572.967407 
	C371.250458,573.018066 370.514221,573.068726 369.083527,573.186707 
	C366.927277,573.841980 365.465454,574.429993 364.003662,575.018005 
	C363.551178,575.058899 363.098724,575.099792 362.087646,575.206421 
	C361.180969,575.346069 360.967102,575.556396 360.887390,575.903259 
	C360.887390,575.903259 360.998627,575.907959 360.593872,575.862183 
	C359.122650,576.199768 358.056183,576.583130 356.989685,576.966553 
	C355.547974,577.244141 354.106262,577.521667 351.987213,577.937378 
	C349.532837,578.693665 347.755798,579.311768 345.978729,579.929810 
	C344.567688,580.293091 343.156616,580.656433 341.038879,581.091919 
	C338.549377,581.757629 336.766602,582.351196 334.983826,582.944702 
	C334.548187,582.981812 334.112518,583.018860 333.007965,583.120178 
	C330.955139,583.522583 329.571259,583.860657 328.187347,584.198792 
	C328.187347,584.198792 328.040131,584.044922 327.965210,583.967346 
	C329.116272,583.108215 330.342255,582.326721 331.786652,581.280518 
	C332.005066,581.015747 332.005341,581.004150 332.403870,581.007690 
	C334.877533,580.348145 336.952698,579.685059 339.027832,579.021912 
	C339.466095,579.019409 339.904388,579.016907 341.041901,579.004028 
	C343.496613,578.335938 345.252075,577.678284 347.007568,577.020691 
	C349.004395,575.944336 351.001251,574.868042 353.412537,573.417114 
	C356.124725,573.274841 358.422516,573.507141 360.720276,573.739380 
	C360.792114,573.047119 360.863953,572.354919 360.935791,571.662659 
	C359.637329,571.435852 358.338867,571.209106 357.040405,570.982300 
	C357.198883,570.433533 357.357361,569.884705 357.757904,569.171448 
z"/>
<path fill="#F9DE3D" opacity="1.000000" stroke="none" 
	d="
M466.581238,327.924408 
	C466.793976,326.946075 467.006714,325.967773 467.478210,324.710693 
	C467.737000,327.990417 467.737000,331.548828 467.737000,334.963501 
	C463.782959,334.569061 460.966095,334.049316 458.148193,334.043671 
	C428.235748,333.983673 398.323151,333.987793 368.410706,334.042053 
	C366.298828,334.045868 364.187927,334.585541 361.687805,334.952332 
	C361.216095,334.617584 361.133179,334.206512 361.491394,333.414429 
	C363.643646,332.885834 365.354736,332.738251 367.065857,332.590698 
	C383.874695,332.677704 400.683502,332.812836 417.492432,332.837463 
	C432.806702,332.859924 448.121155,332.762543 464.162415,332.457825 
	C465.453247,330.773193 466.017242,329.348785 466.581238,327.924408 
z"/>
<path fill="#F9DE3D" opacity="1.000000" stroke="none" 
	d="
M436.320007,617.463440 
	C439.254608,616.273682 441.264923,614.759460 441.573700,610.814453 
	C442.384613,600.454102 443.761353,590.138062 445.041077,579.416504 
	C445.266296,585.033936 445.572357,591.045532 445.391754,597.042419 
	C445.254395,601.601074 444.054199,606.147949 444.125122,610.687561 
	C444.223419,616.979309 443.169708,618.273254 436.320007,617.463440 
z"/>
<path fill="#FFDE25" opacity="1.000000" stroke="none" 
	d="
M300.006104,652.000000 
	C300.586517,653.136108 301.166931,654.272278 301.874878,655.700562 
	C300.554810,656.447876 299.107178,656.903076 297.659546,657.358276 
	C297.565826,656.830322 297.472137,656.302368 297.378448,655.774414 
	C294.391693,659.539612 292.101624,660.282043 290.794617,654.920349 
	C290.329956,653.014221 289.262848,651.254822 289.100586,649.252869 
	C291.153595,649.384827 292.576813,649.692383 294.037598,650.347534 
	C295.272522,654.673828 298.088715,651.294312 300.006104,652.000000 
z"/>
<path fill="#F9DE3D" opacity="1.000000" stroke="none" 
	d="
M389.004517,490.999512 
	C390.699615,490.914124 392.394714,490.828735 394.897522,490.744446 
	C396.631866,492.188354 397.558563,493.631104 398.485260,495.073853 
	C398.306946,495.796661 398.128632,496.519470 397.730652,497.847046 
	C397.326019,499.306610 397.140991,500.161438 396.955994,501.016235 
	C394.433380,500.894714 395.246796,495.523590 391.193939,496.873444 
	C390.508484,493.184723 388.914703,493.570770 386.993073,494.975433 
	C386.554840,494.979462 386.116638,494.983459 385.179199,494.744049 
	C384.121399,494.337372 383.562775,494.174133 383.004150,494.010895 
	C382.699768,493.930756 382.438202,493.777527 382.462585,493.247070 
	C384.805359,492.295074 386.904938,491.647308 389.004517,490.999512 
z"/>
<path fill="#FFDE25" opacity="1.000000" stroke="none" 
	d="
M305.044312,509.348816 
	C307.704132,508.988464 310.398926,508.988312 313.542480,508.987061 
	C316.383759,509.884247 318.776245,510.782471 321.911102,511.959381 
	C321.014587,512.737427 319.924103,514.343567 318.464905,514.819580 
	C314.880219,515.989014 307.266754,512.848877 305.044312,509.348816 
z"/>
<path fill="#F9DE3D" opacity="1.000000" stroke="none" 
	d="
M392.987122,540.754822 
	C392.594849,537.434937 392.002838,533.878113 392.180847,530.360291 
	C392.593292,522.210754 393.378204,514.080017 394.015564,505.473755 
	C394.732788,504.682678 395.446564,504.359467 396.553040,504.339569 
	C397.026978,505.107330 397.108246,505.571777 397.189514,506.036224 
	C397.105103,506.775360 397.020660,507.514465 396.711853,508.928955 
	C396.104034,514.089661 395.720642,518.575012 395.337250,523.060364 
	C395.218994,524.756592 395.100739,526.452881 394.721893,528.854370 
	C394.101685,533.061218 393.742096,536.562744 393.382477,540.064331 
	C393.300751,540.221436 393.218994,540.378540 392.987122,540.754822 
z"/>
<path fill="#F9DE3D" opacity="1.000000" stroke="none" 
	d="
M470.606628,281.935333 
	C470.722870,279.923126 470.839081,277.910919 470.978882,275.155518 
	C470.960052,273.984467 470.917694,273.556610 470.875336,273.128723 
	C470.875336,273.128723 470.991730,273.010132 471.051300,272.950378 
	C471.734161,274.396545 472.860443,275.890686 472.896027,277.410370 
	C473.076874,285.136139 472.989594,292.868561 472.957733,300.598511 
	C472.952576,301.847351 472.753754,303.095367 472.544556,305.484467 
	C471.261017,303.412323 470.572449,302.300690 469.553772,301.116394 
	C469.160004,299.965698 469.096375,298.887695 469.283508,297.113251 
	C469.891754,291.589661 470.249207,286.762512 470.606628,281.935333 
z"/>
<path fill="#F9DE3D" opacity="1.000000" stroke="none" 
	d="
M455.570618,469.923218 
	C455.787323,463.289398 456.359589,456.553650 457.049164,449.422424 
	C457.445679,450.277679 457.634491,451.557281 458.022278,452.773468 
	C458.949463,455.681458 460.830658,458.600952 460.694183,461.437256 
	C460.574707,463.920776 458.242340,466.303833 456.858551,468.714661 
	C456.622314,469.126312 456.240692,469.454529 455.570618,469.923218 
z"/>
<path fill="#FFDE25" opacity="1.000000" stroke="none" 
	d="
M294.992432,508.977173 
	C296.633026,510.194702 298.273621,511.412262 299.976471,512.676025 
	C296.568756,515.856506 294.925568,515.356079 285.889404,508.507202 
	C287.959106,507.929321 289.602020,507.470612 291.681458,507.347351 
	C293.076111,508.114258 294.034271,508.545715 294.992432,508.977173 
z"/>
<path fill="#F9DE3D" opacity="1.000000" stroke="none" 
	d="
M445.600586,576.957825 
	C445.706299,570.582703 446.185577,564.133728 446.904327,557.365723 
	C447.339874,563.110168 447.581879,569.173035 447.653412,575.237854 
	C447.659790,575.779907 446.560089,576.334961 445.600586,576.957825 
z"/>
<path fill="#F9DE3D" opacity="1.000000" stroke="none" 
	d="
M467.425476,321.081635 
	C467.304413,320.261810 467.183380,319.441956 467.272949,318.008118 
	C467.846283,313.571869 468.209015,309.749634 468.571716,305.927399 
	C468.687988,305.195923 468.804260,304.464478 469.020691,303.375397 
	C469.690521,308.330078 470.215027,313.647858 470.859222,318.951080 
	C471.036774,320.412842 471.571167,321.831268 472.052063,323.697418 
	C471.061401,323.751495 469.683411,323.826691 467.859985,323.834747 
	C467.381439,323.420776 467.348297,323.073914 467.674408,322.353516 
	C467.830902,321.680511 467.628204,321.381073 467.425476,321.081635 
z"/>
<path fill="#F9DE3D" opacity="1.000000" stroke="none" 
	d="
M359.422699,498.012054 
	C358.154388,497.888123 357.308807,497.757538 356.243256,497.391388 
	C356.168365,497.049347 356.313385,496.942841 357.064087,496.785736 
	C359.784515,496.167694 361.899323,495.600281 364.014130,495.032898 
	C365.388367,494.962219 366.762573,494.891510 368.859802,494.786499 
	C370.390533,494.507751 371.198242,494.263306 372.005981,494.018860 
	C372.746429,493.956940 373.486877,493.895020 374.859314,493.815674 
	C376.003357,493.563629 376.515381,493.328979 377.027435,493.094360 
	C377.785583,493.093842 378.543701,493.093323 379.668884,493.189087 
	C379.764343,494.003174 379.492798,494.720947 378.654083,495.712341 
	C374.721680,496.316498 371.356415,496.647064 367.991180,496.977661 
	C365.275909,497.320221 362.560669,497.662842 359.422699,498.012054 
z"/>
<path fill="#F9DE3D" opacity="1.000000" stroke="none" 
	d="
M447.625671,554.932068 
	C447.741608,549.243225 448.205811,543.457214 448.901794,537.355347 
	C450.336029,543.074829 451.252014,549.091553 447.625671,554.932068 
z"/>
<path fill="#FFDE25" opacity="1.000000" stroke="none" 
	d="
M368.042297,497.358582 
	C371.356415,496.647064 374.721680,496.316498 378.538788,495.981964 
	C376.578888,500.528870 371.548340,501.342041 368.042297,497.358582 
z"/>
<path fill="#FEDD28" opacity="1.000000" stroke="none" 
	d="
M294.000000,650.000000 
	C292.576813,649.692383 291.153595,649.384827 289.365204,649.038635 
	C289.351959,646.993408 285.591461,644.131714 290.621765,643.009644 
	C292.330292,645.089844 293.660583,647.179688 294.745422,649.634766 
	C294.500000,650.000000 294.000000,650.000000 294.000000,650.000000 
z"/>
<path fill="#FFDE25" opacity="1.000000" stroke="none" 
	d="
M293.999268,720.602295 
	C292.611115,720.996765 291.222198,720.998413 289.416656,721.000000 
	C287.011139,718.577759 288.152985,716.972107 290.609741,716.356995 
	C293.781952,715.562622 293.954681,717.954895 293.999268,720.602295 
z"/>
<path fill="#FFDE25" opacity="1.000000" stroke="none" 
	d="
M365.223267,562.969360 
	C361.454926,561.207458 363.187531,559.940491 365.354065,559.199280 
	C366.617035,558.767151 368.148773,559.120483 369.559601,559.120483 
	C369.764709,559.727661 369.969788,560.334839 370.174866,560.942078 
	C368.657623,561.624634 367.140381,562.307190 365.223267,562.969360 
z"/>
<path fill="#FFDE25" opacity="1.000000" stroke="none" 
	d="
M356.711792,570.853333 
	C358.338867,571.209106 359.637329,571.435852 360.935791,571.662659 
	C360.863953,572.354919 360.792114,573.047119 360.720276,573.739380 
	C358.422516,573.507141 356.124725,573.274841 353.426086,573.040283 
	C352.927643,572.162537 352.830078,571.286987 352.732513,570.411499 
	C353.949402,570.515747 355.166290,570.620056 356.711792,570.853333 
z"/>
<path fill="#FFDE25" opacity="1.000000" stroke="none" 
	d="
M386.995453,495.424316 
	C388.914703,493.570770 390.508484,493.184723 390.994476,496.630615 
	C389.998627,499.079010 388.996002,501.158020 387.993408,503.237030 
	C387.661530,503.303192 387.329681,503.369324 386.997833,503.435486 
	C386.997833,500.914734 386.997833,498.393951 386.995453,495.424316 
z"/>
<path fill="#FFDE25" opacity="1.000000" stroke="none" 
	d="
M346.961121,576.651978 
	C345.252075,577.678284 343.496613,578.335938 341.370544,578.999268 
	C341.715912,577.390076 342.431885,575.775269 343.147827,574.160461 
	C344.403473,574.868042 345.659058,575.575623 346.961121,576.651978 
z"/>
<path fill="#FFDE25" opacity="1.000000" stroke="none" 
	d="
M353.026855,563.012207 
	C353.007507,561.759216 352.988159,560.506287 352.968811,559.253296 
	C354.235779,559.347107 355.594727,559.217224 356.711609,559.676208 
	C357.030884,559.807434 356.648712,561.645386 355.913116,562.856445 
	C354.500977,563.012207 353.763916,563.012207 353.026855,563.012207 
z"/>
<path fill="#F9DE3D" opacity="1.000000" stroke="none" 
	d="
M461.936646,499.091156 
	C462.415924,500.719147 462.697021,502.029266 462.978119,503.339355 
	C462.417114,503.575714 461.856140,503.812042 461.295135,504.048401 
	C460.551697,502.666077 459.808258,501.283752 459.064819,499.901428 
	C459.956055,499.525360 460.847260,499.149292 461.936646,499.091156 
z"/>
<path fill="#FFFCD9" opacity="1.000000" stroke="none" 
	d="
M388.745789,490.717407 
	C386.904938,491.647308 384.805359,492.295074 382.336487,493.055176 
	C381.792816,493.101654 381.618378,493.035797 381.198822,492.834778 
	C382.421875,488.475067 385.678864,490.201752 388.745789,490.717407 
z"/>
<path fill="#FDDD2B" opacity="1.000000" stroke="none" 
	d="
M479.035217,275.212830 
	C479.735840,274.340302 480.414490,273.866852 481.093140,273.393433 
	C481.377777,275.128082 481.662384,276.862732 481.946991,278.597382 
	C481.347717,278.716736 480.748444,278.836060 480.149200,278.955383 
	C479.770538,277.840881 479.391907,276.726410 479.035217,275.212830 
z"/>
<path fill="#FFFCD9" opacity="1.000000" stroke="none" 
	d="
M397.548462,505.930511 
	C397.108246,505.571777 397.026978,505.107330 396.845856,504.302032 
	C396.842407,503.226227 396.938782,502.491272 396.995575,501.386292 
	C397.140991,500.161438 397.326019,499.306610 397.740967,498.221497 
	C397.949799,500.602417 397.928619,503.213623 397.548462,505.930511 
z"/>
<path fill="#FFDE25" opacity="1.000000" stroke="none" 
	d="
M338.696350,578.874878 
	C336.952698,579.685059 334.877533,580.348145 332.409363,581.011841 
	C334.132507,580.250854 336.248657,579.489380 338.696350,578.874878 
z"/>
<path fill="#F9DE3D" opacity="1.000000" stroke="none" 
	d="
M295.119995,508.685852 
	C294.034271,508.545715 293.076111,508.114258 292.062653,507.341431 
	C292.008636,506.557617 292.009918,506.115265 292.016602,505.341309 
	C293.191162,505.160461 294.360321,505.311157 295.760101,505.731262 
	C295.742950,506.798645 295.495239,507.596588 295.119995,508.685852 
z"/>
<path fill="#F9DE3D" opacity="1.000000" stroke="none" 
	d="
M317.098480,507.386261 
	C319.051666,507.013000 321.077209,507.013824 323.535828,507.014648 
	C322.036377,510.303711 319.652954,509.481598 317.098480,507.386261 
z"/>
<path fill="#F9DE3D" opacity="1.000000" stroke="none" 
	d="
M316.899261,578.618042 
	C315.269745,578.982910 313.575409,578.982910 311.458435,578.982910 
	C312.574402,575.606689 314.666016,576.624817 316.899261,578.618042 
z"/>
<path fill="#FFDE25" opacity="1.000000" stroke="none" 
	d="
M297.254333,266.836853 
	C297.864136,266.130615 298.551971,265.762939 299.239777,265.395264 
	C299.388702,265.961304 299.537628,266.527344 299.686554,267.093445 
	C298.901825,267.120758 298.117065,267.148102 297.254333,266.836853 
z"/>
<path fill="#FDDD2B" opacity="1.000000" stroke="none" 
	d="
M485.840759,268.253479 
	C486.149261,269.116699 486.119659,269.901428 486.090057,270.686188 
	C485.524414,270.536072 484.958801,270.385925 484.393188,270.235809 
	C484.763031,269.548889 485.132874,268.861938 485.840759,268.253479 
z"/>
<path fill="#F9DE3D" opacity="1.000000" stroke="none" 
	d="
M353.070984,563.343506 
	C353.763916,563.012207 354.500977,563.012207 355.606262,563.012207 
	C355.021393,563.233093 354.068268,563.453979 353.070984,563.343506 
z"/>
<path fill="#F9DE3D" opacity="1.000000" stroke="none" 
	d="
M457.791626,515.806030 
	C457.235138,516.049316 456.739441,515.995911 456.243713,515.942505 
	C456.356323,515.496399 456.468903,515.050232 456.581482,514.604126 
	C457.005127,514.905823 457.428772,515.207520 457.791626,515.806030 
z"/>
<path fill="#F9DE3D" opacity="1.000000" stroke="none" 
	d="
M326.935944,578.688110 
	C326.537628,578.981812 326.110199,578.980713 325.362793,578.977905 
	C325.264862,578.466431 325.486969,577.956604 325.709045,577.446777 
	C326.108307,577.762268 326.507599,578.077820 326.935944,578.688110 
z"/>
<path fill="#F9DE3D" opacity="1.000000" stroke="none" 
	d="
M459.955200,479.599792 
	C459.716248,479.207428 459.718109,478.817047 459.748108,478.428833 
	C459.748962,478.417999 460.051147,478.430450 460.212830,478.432037 
	C460.208527,478.822052 460.204254,479.212097 459.955200,479.599792 
z"/>
<path fill="#FFDE25" opacity="1.000000" stroke="none" 
	d="
M385.605286,512.045532 
	C385.209259,512.287109 384.815369,512.285339 384.423645,512.255066 
	C384.412628,512.254211 384.425110,511.948883 384.426605,511.785522 
	C384.820282,511.789734 385.213989,511.793976 385.605286,512.045532 
z"/>
<path fill="#FFDE25" opacity="1.000000" stroke="none" 
	d="
M383.173767,494.255219 
	C383.562775,494.174133 384.121399,494.337372 384.850525,494.745117 
	C384.461853,494.826263 383.902618,494.662903 383.173767,494.255219 
z"/>
<path fill="#FFFCD9" opacity="1.000000" stroke="none" 
	d="
M302.052307,273.586792 
	C302.571075,273.146423 303.013580,273.158295 303.769897,273.282043 
	C304.050079,332.178864 304.014252,390.963776 303.984253,449.748718 
	C303.975372,467.191742 303.982910,484.634766 303.982910,502.444763 
	C306.754456,502.444763 309.624786,502.444763 312.753601,502.736023 
	C311.502472,503.504578 309.992859,503.981873 307.894897,504.662445 
	C306.876160,504.922180 306.445831,504.978638 306.015472,505.035095 
	C301.598694,505.619049 301.839355,502.717346 301.840485,499.703979 
	C301.864960,434.465973 301.840668,369.227997 301.843140,303.989990 
	C301.843536,294.006317 301.929596,284.022644 302.052307,273.586792 
z"/>
<path fill="#FFFCD9" opacity="1.000000" stroke="none" 
	d="
M306.087036,273.761353 
	C306.922974,273.301086 307.910034,273.095642 308.897064,273.095764 
	C361.315063,273.102234 413.733093,273.126068 466.615417,273.258972 
	C466.152924,274.123749 465.245728,275.487671 464.295746,275.518158 
	C461.339813,275.612976 458.367798,275.017792 455.401764,275.015350 
	C407.585907,274.976349 359.769989,274.997894 311.954132,274.950806 
	C310.048523,274.948944 308.143433,274.404022 306.087036,273.761353 
z"/>
<path fill="#FFDE25" opacity="1.000000" stroke="none" 
	d="
M361.230255,340.504578 
	C361.885651,341.252106 362.932709,342.454712 362.936737,343.660767 
	C363.029175,371.297180 363.018341,398.934021 362.967560,426.570648 
	C362.965637,427.620209 362.372589,428.668701 361.690491,429.833862 
	C361.242371,410.066254 361.139313,390.182526 361.083435,370.298645 
	C361.055939,360.519653 361.115784,350.740356 361.230255,340.504578 
z"/>
<path fill="#F9DE3D" opacity="1.000000" stroke="none" 
	d="
M385.099609,568.108398 
	C390.899445,562.126099 390.736969,554.957031 389.435791,547.449951 
	C389.321228,546.788940 391.042847,545.809570 392.285980,544.965454 
	C392.741943,545.711609 392.823517,546.470337 392.688232,547.909058 
	C392.044312,553.408630 391.617279,558.228271 391.190216,563.047852 
	C391.101532,563.475586 391.012817,563.903320 390.680603,564.890503 
	C388.657928,566.336060 386.878754,567.222229 385.099609,568.108398 
z"/>
<path fill="#FFFCD9" opacity="1.000000" stroke="none" 
	d="
M391.588593,563.017273 
	C391.617279,558.228271 392.044312,553.408630 392.727661,548.290466 
	C394.064484,553.084106 395.843079,558.222717 391.588593,563.017273 
z"/>
<path fill="#F9DE3D" opacity="1.000000" stroke="none" 
	d="
M351.930786,497.970337 
	C350.907959,498.604523 349.957062,499.483765 348.843964,499.810669 
	C347.463348,500.216187 345.947388,500.155396 344.491577,500.311707 
	C340.505981,500.739716 336.521271,501.175873 332.583862,501.169006 
	C334.425110,500.163788 336.218719,499.598389 338.012329,499.033020 
	C339.387421,498.968719 340.762543,498.904449 342.932068,498.809753 
	C346.461273,498.509674 349.196045,498.239990 351.930786,497.970337 
z"/>
<path fill="#FFFCD9" opacity="1.000000" stroke="none" 
	d="
M470.273407,282.061340 
	C470.249207,286.762512 469.891754,291.589661 469.260132,296.707336 
	C467.032471,291.914642 467.704224,287.000580 470.273407,282.061340 
z"/>
<path fill="#FFFCD9" opacity="1.000000" stroke="none" 
	d="
M395.675629,522.947083 
	C395.720642,518.575012 396.104034,514.089661 396.741333,509.300781 
	C398.750061,513.757080 398.774933,518.394226 395.675629,522.947083 
z"/>
<path fill="#FFFCD9" opacity="1.000000" stroke="none" 
	d="
M468.222443,306.028442 
	C468.209015,309.749634 467.846283,313.571869 467.230957,317.696289 
	C465.798737,313.930756 464.507599,309.854584 468.222443,306.028442 
z"/>
<path fill="#FFFCD9" opacity="1.000000" stroke="none" 
	d="
M385.083374,568.096680 
	C386.878754,567.222229 388.657928,566.336060 390.698242,565.218750 
	C391.638489,569.924072 390.325745,571.384827 386.033142,570.513123 
	C384.933777,570.289917 383.812439,570.174866 382.283447,569.968628 
	C381.888184,569.760559 381.910706,569.593933 381.964966,569.176941 
	C382.451294,568.909363 382.905945,568.892212 383.924225,568.802490 
	C384.834900,568.638367 385.033569,568.414917 385.083954,568.059509 
	C385.083954,568.059509 385.067169,568.084961 385.083374,568.096680 
z"/>
<path fill="#FFFCD9" opacity="1.000000" stroke="none" 
	d="
M393.716980,539.950806 
	C393.742096,536.562744 394.101685,533.061218 394.741455,529.280640 
	C396.576141,532.781677 396.921051,536.453308 393.716980,539.950806 
z"/>
<path fill="#F9DE3D" opacity="1.000000" stroke="none" 
	d="
M328.658539,501.161682 
	C326.537964,506.433350 322.173035,503.312500 318.288757,503.316528 
	C318.816986,502.789185 319.632568,502.544617 321.100311,502.157104 
	C323.171234,501.682861 324.589966,501.351593 326.008698,501.020355 
	C326.768219,501.040283 327.527740,501.060181 328.658539,501.161682 
z"/>
<path fill="#FFFCD9" opacity="1.000000" stroke="none" 
	d="
M315.124878,588.876465 
	C318.225433,587.613220 321.770599,586.419312 325.691589,585.280640 
	C323.628967,589.624023 319.262543,588.305847 315.124878,588.876465 
z"/>
<path fill="#FFFCD9" opacity="1.000000" stroke="none" 
	d="
M398.794342,494.952881 
	C397.558563,493.631104 396.631866,492.188354 395.304382,490.627136 
	C395.395538,487.254852 397.125153,487.246674 398.567444,489.585358 
	C399.398041,490.932159 398.966705,493.057220 398.794342,494.952881 
z"/>
<path fill="#FFFCD9" opacity="1.000000" stroke="none" 
	d="
M351.976807,497.757629 
	C349.196045,498.239990 346.461273,498.509674 343.329712,498.696533 
	C345.097778,495.025818 348.352356,495.888153 351.799438,496.807587 
	C352.052185,497.110596 352.022797,497.544891 351.976807,497.757629 
z"/>
<path fill="#FFFCD9" opacity="1.000000" stroke="none" 
	d="
M337.766022,498.752625 
	C336.218719,499.598389 334.425110,500.163788 332.307190,500.898560 
	C331.802673,501.005249 331.622498,500.942505 331.192200,500.740173 
	C332.167328,496.901611 334.944885,498.000275 337.766022,498.752625 
z"/>
<path fill="#FFFCD9" opacity="1.000000" stroke="none" 
	d="
M363.787720,494.754303 
	C361.899323,495.600281 359.784515,496.167694 357.299744,496.654236 
	C359.140289,495.874115 361.350830,495.174927 363.787720,494.754303 
z"/>
<path fill="#FFFCD9" opacity="1.000000" stroke="none" 
	d="
M335.215942,583.222290 
	C336.766602,582.351196 338.549377,581.757629 340.693970,581.213623 
	C340.206024,584.564697 337.937744,584.309875 335.215942,583.222290 
z"/>
<path fill="#FFFCD9" opacity="1.000000" stroke="none" 
	d="
M366.937775,332.263336 
	C365.354736,332.738251 363.643646,332.885834 361.508331,333.096069 
	C362.266144,329.349274 364.626190,331.055939 366.937775,332.263336 
z"/>
<path fill="#FFFCD9" opacity="1.000000" stroke="none" 
	d="
M372.223694,573.246765 
	C373.443726,572.358643 374.900696,571.749817 376.706421,571.184753 
	C376.894867,574.736450 374.724030,574.223816 372.223694,573.246765 
z"/>
<path fill="#FFFCD9" opacity="1.000000" stroke="none" 
	d="
M364.242462,575.287476 
	C365.465454,574.429993 366.927277,573.841980 368.735718,573.313354 
	C368.823517,576.786377 366.650055,576.166687 364.242462,575.287476 
z"/>
<path fill="#FFFCD9" opacity="1.000000" stroke="none" 
	d="
M346.179810,580.194946 
	C347.755798,579.311768 349.532837,578.693665 351.674927,578.137695 
	C350.153564,578.953186 348.267212,579.706665 346.179810,580.194946 
z"/>
<path fill="#FFFCD9" opacity="1.000000" stroke="none" 
	d="
M328.130157,584.406128 
	C329.571259,583.860657 330.955139,583.522583 332.696350,583.225586 
	C331.520874,584.031372 329.988037,584.795898 328.233795,585.300049 
	C328.012360,585.039551 328.072968,584.613525 328.130157,584.406128 
z"/>
<path fill="#FFFCD9" opacity="1.000000" stroke="none" 
	d="
M325.775238,500.745056 
	C324.589966,501.351593 323.171234,501.682861 321.370483,501.984680 
	C322.506226,501.460052 324.024017,500.964905 325.775238,500.745056 
z"/>
<path fill="#FFFCD9" opacity="1.000000" stroke="none" 
	d="
M466.248566,328.010376 
	C466.017242,329.348785 465.453247,330.773193 464.551819,332.293152 
	C464.781586,330.957947 465.348755,329.527161 466.248566,328.010376 
z"/>
<path fill="#FFFCD9" opacity="1.000000" stroke="none" 
	d="
M357.208221,577.241211 
	C358.056183,576.583130 359.122650,576.199768 360.543610,575.838257 
	C359.740967,576.411987 358.583862,576.963928 357.208221,577.241211 
z"/>
<path fill="#FFFCD9" opacity="1.000000" stroke="none" 
	d="
M397.087158,563.978394 
	C397.587891,563.389771 398.091522,563.123291 398.595154,562.856873 
	C398.599335,563.599487 398.603516,564.342102 398.607727,565.084717 
	C398.101837,564.823303 397.595947,564.561951 397.087158,563.978394 
z"/>
<path fill="#FFFCD9" opacity="1.000000" stroke="none" 
	d="
M371.831177,493.766846 
	C371.198242,494.263306 370.390533,494.507751 369.255737,494.670258 
	C369.837921,494.230499 370.747162,493.872681 371.831177,493.766846 
z"/>
<path fill="#FFFCD9" opacity="1.000000" stroke="none" 
	d="
M376.891510,492.858093 
	C376.515381,493.328979 376.003357,493.563629 375.210205,493.689392 
	C375.537933,493.260956 376.146759,492.941376 376.891510,492.858093 
z"/>
<path fill="#FFFCD9" opacity="1.000000" stroke="none" 
	d="
M470.546692,273.120667 
	C470.917694,273.556610 470.960052,273.984467 470.919678,274.725159 
	C470.248047,274.660126 469.659210,274.282257 469.004059,273.633606 
	C469.364532,273.279419 469.791260,273.196014 470.546692,273.120667 
z"/>
<path fill="#FFFCD9" opacity="1.000000" stroke="none" 
	d="
M379.158875,570.944824 
	C379.365601,570.628357 379.878845,570.344666 380.692230,570.102417 
	C380.483368,570.421753 379.974365,570.699707 379.158875,570.944824 
z"/>
<path fill="#FFFCD9" opacity="1.000000" stroke="none" 
	d="
M361.106049,575.890991 
	C360.967102,575.556396 361.180969,575.346069 361.761810,575.309937 
	C361.841156,575.612793 361.617859,575.789795 361.106049,575.890991 
z"/>
<path fill="#FFDE25" opacity="1.000000" stroke="none" 
	d="
M467.394928,321.380463 
	C467.628204,321.381073 467.830902,321.680511 467.792999,322.114929 
	C467.489716,322.059692 467.427032,321.869507 467.394928,321.380463 
z"/>
<path fill="#FFDB2E" opacity="1.000000" stroke="none" 
	d="
M294.353180,586.107788 
	C295.267365,587.339783 295.802063,588.623474 296.336761,589.907227 
	C294.863678,589.998657 293.390564,590.090088 291.917480,590.181519 
	C292.602905,588.840820 293.288300,587.500183 294.353180,586.107788 
z"/>
<path fill="#FFDE25" opacity="1.000000" stroke="none" 
	d="
M294.037598,650.347534 
	C294.000000,650.000000 294.500000,650.000000 294.750000,650.000000 
	C296.422974,649.669556 297.845978,649.339111 299.639282,649.004333 
	C300.009583,649.750000 300.009583,650.500000 300.007843,651.625000 
	C298.088715,651.294312 295.272522,654.673828 294.037598,650.347534 
z"/>
<path fill="#FFDE25" opacity="1.000000" stroke="none" 
	d="
M306.074951,505.378174 
	C306.445831,504.978638 306.876160,504.922180 307.631775,504.891693 
	C308.658752,505.470154 309.360504,506.022675 310.062256,506.575165 
	C309.975372,506.797058 309.888489,507.018921 309.801575,507.240814 
	C308.579193,506.734283 307.356812,506.227753 306.074951,505.378174 
z"/>
<path fill="#F9DE3D" opacity="1.000000" stroke="none" 
	d="
M384.870361,568.093567 
	C385.033569,568.414917 384.834900,568.638367 384.253174,568.707092 
	C384.163208,568.420837 384.375977,568.235291 384.870361,568.093567 
z"/>
</svg>